<svg width="425" height="22" viewBox="0 0 425 22" fill="none" xmlns="http://www.w3.org/2000/svg">
<g clip-path="url(#clip0_8431_199)">
<path d="M6.2846 5.34272V2.51415C6.2846 2.26408 6.38393 2.02427 6.56075 1.84745C6.73758 1.67063 6.97739 1.57129 7.22746 1.57129H14.7703C15.0204 1.57129 15.2602 1.67063 15.437 1.84745C15.6138 2.02427 15.7132 2.26408 15.7132 2.51415V5.34272H19.4846C19.7347 5.34272 19.9745 5.44205 20.1513 5.61887C20.3281 5.79569 20.4275 6.03551 20.4275 6.28557V19.4856C20.4275 19.7356 20.3281 19.9755 20.1513 20.1523C19.9745 20.3291 19.7347 20.4284 19.4846 20.4284H2.51317C2.26311 20.4284 2.02329 20.3291 1.84647 20.1523C1.66965 19.9755 1.57031 19.7356 1.57031 19.4856V6.28557C1.57031 6.03551 1.66965 5.79569 1.84647 5.61887C2.02329 5.44205 2.26311 5.34272 2.51317 5.34272H6.2846ZM18.5417 12.8856H3.45603V18.5427H18.5417V12.8856ZM18.5417 7.22843H3.45603V10.9999H6.2846V9.11415H8.17031V10.9999H13.8275V9.11415H15.7132V10.9999H18.5417V7.22843ZM8.17031 3.457V5.34272H13.8275V3.457H8.17031Z" fill="black"/>
</g>
<path d="M31.696 5.36C31.696 4.816 31.6213 4.416 31.472 4.16C31.3227 3.89333 31.024 3.76 30.576 3.76H30.256V3.44H34.416C35.44 3.44 36.3627 3.65867 37.184 4.096C38.0053 4.53333 38.416 5.38133 38.416 6.64C38.416 7.472 38.2027 8.112 37.776 8.56C37.3493 9.008 36.8693 9.30667 36.336 9.456C35.8133 9.60533 35.3333 9.68 34.896 9.68H33.136V14H31.696V5.36ZM34.336 9.12C34.6773 9.12 35.04 9.03467 35.424 8.864C35.808 8.68267 36.1333 8.4 36.4 8.016C36.6773 7.632 36.816 7.14667 36.816 6.56C36.816 5.97333 36.6773 5.488 36.4 5.104C36.1333 4.72 35.808 4.44267 35.424 4.272C35.04 4.09067 34.6773 4 34.336 4C33.9627 4 33.5627 4.05333 33.136 4.16V8.96C33.5627 9.06667 33.9627 9.12 34.336 9.12ZM40.3641 5.36C40.3641 4.816 40.2895 4.416 40.1401 4.16C39.9908 3.89333 39.6921 3.76 39.2441 3.76H38.9241V3.44H40.3641C40.7588 3.44 41.0521 3.49333 41.2441 3.6C41.4468 3.696 41.5908 3.87733 41.6761 4.144C41.7615 4.41067 41.8041 4.816 41.8041 5.36V14H40.3641V5.36ZM46.2871 14.16C45.9458 14.16 45.5991 14.0907 45.2471 13.952C44.8951 13.8027 44.5911 13.5627 44.3351 13.232C44.0898 12.9013 43.9671 12.464 43.9671 11.92C43.9671 11.1093 44.3405 10.5333 45.0871 10.192C45.8445 9.85067 46.8311 9.68 48.0471 9.68H48.5271C48.5271 8.63467 48.3831 7.92 48.0951 7.536C47.8071 7.152 47.3911 6.96 46.8471 6.96C46.3671 6.96 45.9831 7.06133 45.6951 7.264C45.4071 7.46667 45.2045 7.81867 45.0871 8.32H44.3671C44.3671 7.95733 44.3885 7.67467 44.4311 7.472C44.4738 7.25867 44.5858 7.06133 44.7671 6.88C44.9591 6.688 45.2738 6.54933 45.7111 6.464C46.1591 6.368 46.6445 6.32 47.1671 6.32C48.0311 6.32 48.7138 6.55467 49.2151 7.024C49.7165 7.48267 49.9671 8.368 49.9671 9.68V14H49.1671L48.6071 13.28H48.5271C48.3351 13.5253 48.0525 13.7333 47.6791 13.904C47.3058 14.0747 46.8418 14.16 46.2871 14.16ZM47.0071 13.44C47.3591 13.44 47.6525 13.3547 47.8871 13.184C48.1218 13.0133 48.3351 12.7787 48.5271 12.48V10.32H48.0471C47.2578 10.32 46.6338 10.4693 46.1751 10.768C45.7165 11.056 45.4871 11.44 45.4871 11.92C45.4871 12.4107 45.6311 12.7893 45.9191 13.056C46.2178 13.312 46.5805 13.44 47.0071 13.44ZM55.6062 14.16C54.8382 14.16 54.1876 13.9893 53.6542 13.648C53.1316 13.296 52.7369 12.8267 52.4702 12.24C52.2142 11.6427 52.0862 10.976 52.0862 10.24C52.0862 9.504 52.2142 8.84267 52.4702 8.256C52.7369 7.65867 53.1316 7.18933 53.6542 6.848C54.1876 6.496 54.8382 6.32 55.6062 6.32C56.7796 6.32 57.5529 6.50667 57.9262 6.88C58.1076 7.06133 58.2196 7.28533 58.2622 7.552C58.3049 7.808 58.3262 8.27733 58.3262 8.96H58.0062C57.9636 8.29867 57.7556 7.80267 57.3822 7.472C57.0089 7.13067 56.5236 6.96 55.9262 6.96C55.1582 6.96 54.5769 7.264 54.1822 7.872C53.7982 8.48 53.6062 9.26933 53.6062 10.24C53.6062 11.2107 53.7982 12 54.1822 12.608C54.5769 13.216 55.1582 13.52 55.9262 13.52C56.4702 13.52 56.9182 13.4187 57.2702 13.216C57.6222 13.0027 57.9476 12.6773 58.2462 12.24L58.5662 12.48C58.2142 13.0773 57.7982 13.5093 57.3182 13.776C56.8382 14.032 56.2676 14.16 55.6062 14.16ZM63.5006 14.16C62.7753 14.16 62.162 13.9893 61.6606 13.648C61.1593 13.296 60.7806 12.8267 60.5246 12.24C60.2686 11.6427 60.1406 10.976 60.1406 10.24C60.1406 9.51467 60.2686 8.85333 60.5246 8.256C60.7806 7.65867 61.1486 7.18933 61.6286 6.848C62.1193 6.496 62.69 6.32 63.3406 6.32C64.418 6.32 65.218 6.624 65.7406 7.232C66.274 7.82933 66.5406 8.69867 66.5406 9.84L66.5086 10.48H61.6606C61.6606 11.376 61.8526 12.1067 62.2366 12.672C62.6206 13.2373 63.1486 13.52 63.8206 13.52C64.322 13.52 64.7433 13.4133 65.0846 13.2C65.4366 12.9867 65.762 12.6667 66.0606 12.24L66.3806 12.48C66.0286 13.0667 65.618 13.4933 65.1486 13.76C64.6793 14.0267 64.13 14.16 63.5006 14.16ZM65.0206 9.84C65.0206 8.90133 64.882 8.18667 64.6046 7.696C64.3273 7.20533 63.906 6.96 63.3406 6.96C63.0206 6.96 62.7326 7.088 62.4766 7.344C62.2206 7.58933 62.018 7.93067 61.8686 8.368C61.73 8.80533 61.6606 9.296 61.6606 9.84H65.0206ZM68.9451 8.4C68.9451 7.856 68.8705 7.456 68.7211 7.2C68.5718 6.93333 68.2731 6.8 67.8251 6.8H67.5051V6.48H68.9451C69.3398 6.48 69.6385 6.53333 69.8411 6.64C70.0545 6.74667 70.2091 6.90667 70.3051 7.12H70.3851C70.6091 6.896 70.8971 6.70933 71.2491 6.56C71.6118 6.4 72.0171 6.32 72.4651 6.32C72.9131 6.32 73.2971 6.40533 73.6171 6.576C73.9371 6.736 74.1931 7.024 74.3851 7.44C74.6625 7.088 75.0145 6.816 75.4411 6.624C75.8785 6.42133 76.3265 6.32 76.7851 6.32C77.4678 6.32 78.0118 6.53333 78.4171 6.96C78.8225 7.38667 79.0251 8.13333 79.0251 9.2V14H77.5851V9.2C77.5851 8.432 77.4785 7.88267 77.2651 7.552C77.0518 7.21067 76.7318 7.04 76.3051 7.04C76.0065 7.04 75.6918 7.152 75.3611 7.376C75.0305 7.58933 74.7851 7.824 74.6251 8.08C74.6785 8.24 74.7051 8.61333 74.7051 9.2V14H73.2651V9.2C73.2651 8.432 73.1585 7.88267 72.9451 7.552C72.7318 7.21067 72.4118 7.04 71.9851 7.04C71.4198 7.04 70.8865 7.32267 70.3851 7.888V14H68.9451V8.4ZM84.5156 14.16C83.7903 14.16 83.177 13.9893 82.6756 13.648C82.1743 13.296 81.7956 12.8267 81.5396 12.24C81.2836 11.6427 81.1556 10.976 81.1556 10.24C81.1556 9.51467 81.2836 8.85333 81.5396 8.256C81.7956 7.65867 82.1636 7.18933 82.6436 6.848C83.1343 6.496 83.705 6.32 84.3556 6.32C85.433 6.32 86.233 6.624 86.7556 7.232C87.289 7.82933 87.5556 8.69867 87.5556 9.84L87.5236 10.48H82.6756C82.6756 11.376 82.8676 12.1067 83.2516 12.672C83.6356 13.2373 84.1636 13.52 84.8356 13.52C85.337 13.52 85.7583 13.4133 86.0996 13.2C86.4516 12.9867 86.777 12.6667 87.0756 12.24L87.3956 12.48C87.0436 13.0667 86.633 13.4933 86.1636 13.76C85.6943 14.0267 85.145 14.16 84.5156 14.16ZM86.0356 9.84C86.0356 8.90133 85.897 8.18667 85.6196 7.696C85.3423 7.20533 84.921 6.96 84.3556 6.96C84.0356 6.96 83.7476 7.088 83.4916 7.344C83.2356 7.58933 83.033 7.93067 82.8836 8.368C82.745 8.80533 82.6756 9.296 82.6756 9.84H86.0356ZM89.9601 8.4C89.9601 7.856 89.8855 7.456 89.7361 7.2C89.5868 6.93333 89.2881 6.8 88.8401 6.8H88.5201V6.48H89.9601C90.3548 6.48 90.6535 6.53333 90.8561 6.64C91.0695 6.74667 91.2241 6.90667 91.3201 7.12H91.4001C91.6241 6.896 91.9121 6.70933 92.2641 6.56C92.6268 6.4 93.0321 6.32 93.4801 6.32C94.2801 6.32 94.9308 6.53333 95.4321 6.96C95.9441 7.38667 96.2001 8.13333 96.2001 9.2V14H94.7601V9.2C94.7601 8.45333 94.5895 7.90933 94.2481 7.568C93.9175 7.216 93.5015 7.04 93.0001 7.04C92.4348 7.04 91.9015 7.32267 91.4001 7.888V14H89.9601V8.4ZM100.967 14.16C100.37 14.16 99.9006 13.9893 99.5592 13.648C99.2179 13.3067 99.0472 12.784 99.0472 12.08V7.12H97.9272V6.48H99.0472V5.04L99.8472 4.08H100.487V6.48H102.407V7.12H100.487V12.08C100.487 13.04 100.861 13.52 101.607 13.52C101.863 13.52 102.077 13.4933 102.247 13.44C102.429 13.3867 102.615 13.3067 102.807 13.2L102.967 13.52C102.722 13.7013 102.45 13.856 102.151 13.984C101.853 14.1013 101.458 14.16 100.967 14.16ZM112.149 14.272C111.563 14.272 110.987 14.192 110.421 14.032C109.856 13.872 109.392 13.6427 109.029 13.344C108.677 13.0453 108.501 12.704 108.501 12.32V10.608H108.789C108.971 11.6747 109.323 12.448 109.845 12.928C110.368 13.3973 111.088 13.632 112.005 13.632C112.581 13.632 113.072 13.488 113.477 13.2C113.893 12.912 114.101 12.512 114.101 12C114.101 11.552 113.963 11.1627 113.685 10.832C113.408 10.5013 112.96 10.1547 112.341 9.792L110.373 8.624C109.691 8.21867 109.205 7.808 108.917 7.392C108.64 6.976 108.501 6.46933 108.501 5.872C108.501 5.05067 108.784 4.39467 109.349 3.904C109.925 3.40267 110.677 3.152 111.605 3.152C112.149 3.152 112.688 3.232 113.221 3.392C113.755 3.54133 114.192 3.76533 114.533 4.064C114.885 4.352 115.061 4.688 115.061 5.072V6.784H114.773C114.592 5.71733 114.245 4.95467 113.733 4.496C113.232 4.02667 112.523 3.792 111.605 3.792C111.115 3.792 110.683 3.94133 110.309 4.24C109.936 4.53867 109.749 4.928 109.749 5.408C109.749 5.84533 109.883 6.208 110.149 6.496C110.427 6.784 110.885 7.12 111.525 7.504L113.493 8.672C114.219 9.10933 114.731 9.51467 115.029 9.888C115.328 10.2613 115.477 10.736 115.477 11.312C115.477 12.208 115.179 12.928 114.581 13.472C113.984 14.0053 113.173 14.272 112.149 14.272ZM119.865 14.16C119.267 14.16 118.798 13.9893 118.457 13.648C118.115 13.3067 117.945 12.784 117.945 12.08V7.12H116.825V6.48H117.945V5.04L118.745 4.08H119.385V6.48H121.305V7.12H119.385V12.08C119.385 13.04 119.758 13.52 120.505 13.52C120.761 13.52 120.974 13.4933 121.145 13.44C121.326 13.3867 121.513 13.3067 121.705 13.2L121.865 13.52C121.619 13.7013 121.347 13.856 121.049 13.984C120.75 14.1013 120.355 14.16 119.865 14.16ZM125.159 14.16C124.818 14.16 124.471 14.0907 124.119 13.952C123.767 13.8027 123.463 13.5627 123.207 13.232C122.962 12.9013 122.839 12.464 122.839 11.92C122.839 11.1093 123.212 10.5333 123.959 10.192C124.716 9.85067 125.703 9.68 126.919 9.68H127.399C127.399 8.63467 127.255 7.92 126.967 7.536C126.679 7.152 126.263 6.96 125.719 6.96C125.239 6.96 124.855 7.06133 124.567 7.264C124.279 7.46667 124.076 7.81867 123.959 8.32H123.239C123.239 7.95733 123.26 7.67467 123.303 7.472C123.346 7.25867 123.458 7.06133 123.639 6.88C123.831 6.688 124.146 6.54933 124.583 6.464C125.031 6.368 125.516 6.32 126.039 6.32C126.903 6.32 127.586 6.55467 128.087 7.024C128.588 7.48267 128.839 8.368 128.839 9.68V14H128.039L127.479 13.28H127.399C127.207 13.5253 126.924 13.7333 126.551 13.904C126.178 14.0747 125.714 14.16 125.159 14.16ZM125.879 13.44C126.231 13.44 126.524 13.3547 126.759 13.184C126.994 13.0133 127.207 12.7787 127.399 12.48V10.32H126.919C126.13 10.32 125.506 10.4693 125.047 10.768C124.588 11.056 124.359 11.44 124.359 11.92C124.359 12.4107 124.503 12.7893 124.791 13.056C125.09 13.312 125.452 13.44 125.879 13.44ZM131.518 8.4C131.518 7.856 131.443 7.456 131.294 7.2C131.145 6.93333 130.846 6.8 130.398 6.8H130.238V6.48H131.518C131.923 6.48 132.227 6.53867 132.43 6.656C132.643 6.76267 132.793 6.944 132.878 7.2H132.958C133.15 6.95467 133.406 6.74667 133.726 6.576C134.057 6.40533 134.441 6.32 134.878 6.32C135.305 6.32 135.625 6.4 135.838 6.56C136.019 6.69867 136.206 6.93867 136.398 7.28L135.758 7.76C135.641 7.6 135.47 7.48267 135.246 7.408C135.022 7.32267 134.766 7.28 134.478 7.28C134.158 7.28 133.865 7.35467 133.598 7.504C133.331 7.64267 133.118 7.83467 132.958 8.08V14H131.518V8.4ZM140.294 14.16C139.696 14.16 139.227 13.9893 138.886 13.648C138.544 13.3067 138.374 12.784 138.374 12.08V7.12H137.254V6.48H138.374V5.04L139.174 4.08H139.814V6.48H141.734V7.12H139.814V12.08C139.814 13.04 140.187 13.52 140.934 13.52C141.19 13.52 141.403 13.4933 141.574 13.44C141.755 13.3867 141.942 13.3067 142.134 13.2L142.294 13.52C142.048 13.7013 141.776 13.856 141.478 13.984C141.179 14.1013 140.784 14.16 140.294 14.16ZM146.308 14.16C145.081 14.16 144.254 13.9467 143.828 13.52C143.646 13.3387 143.534 13.136 143.492 12.912C143.449 12.6773 143.428 12.32 143.428 11.84H143.748C143.844 12.3733 144.073 12.7893 144.436 13.088C144.809 13.376 145.326 13.52 145.988 13.52C146.574 13.52 147.012 13.4187 147.3 13.216C147.598 13.0133 147.748 12.7413 147.748 12.4C147.748 12.0907 147.63 11.824 147.396 11.6C147.172 11.376 146.809 11.1627 146.308 10.96L145.348 10.56C144.708 10.304 144.228 10.0053 143.908 9.664C143.588 9.32267 143.428 8.90133 143.428 8.4C143.428 7.74933 143.673 7.24267 144.164 6.88C144.654 6.50667 145.289 6.32 146.068 6.32C147.241 6.32 148.041 6.53333 148.468 6.96C148.649 7.14133 148.761 7.344 148.804 7.568C148.846 7.792 148.868 8.14933 148.868 8.64H148.548C148.462 8.10667 148.238 7.696 147.876 7.408C147.513 7.10933 147.017 6.96 146.388 6.96C145.886 6.96 145.492 7.06667 145.204 7.28C144.926 7.48267 144.788 7.74933 144.788 8.08C144.788 8.63467 145.214 9.088 146.068 9.44L147.028 9.84C147.753 10.1387 148.281 10.4587 148.612 10.8C148.942 11.1307 149.108 11.5573 149.108 12.08C149.108 12.7307 148.846 13.2427 148.324 13.616C147.801 13.9787 147.129 14.16 146.308 14.16Z" fill="black"/>
<path d="M235.104 5.256C234.805 5.256 234.576 5.17067 234.416 5C234.267 4.81867 234.192 4.61067 234.192 4.376C234.192 4.03467 234.299 3.76267 234.512 3.56C234.725 3.34667 234.992 3.24 235.312 3.24C235.611 3.24 235.835 3.33067 235.984 3.512C236.144 3.68267 236.224 3.88533 236.224 4.12C236.224 4.45067 236.117 4.72267 235.904 4.936C235.691 5.14933 235.424 5.256 235.104 5.256ZM234.032 15H232.592L234.048 6.68H235.488L234.032 15ZM241.918 7.752C241.544 7.752 241.139 7.89067 240.702 8.168C240.264 8.44533 239.859 8.87733 239.486 9.464C239.123 10.04 238.862 10.7813 238.702 11.688L238.126 15H236.686L238.142 6.68H239.534L239.182 8.6C239.512 7.96 239.955 7.448 240.51 7.064C241.075 6.68 241.667 6.488 242.286 6.488C243.011 6.488 243.592 6.712 244.03 7.16C244.467 7.59733 244.686 8.136 244.686 8.776C244.686 9.04267 244.654 9.37867 244.59 9.784L243.678 15H242.238L243.118 10.024C243.171 9.768 243.203 9.58133 243.214 9.464C243.224 9.336 243.23 9.21867 243.23 9.112C243.23 8.696 243.107 8.36533 242.862 8.12C242.627 7.87467 242.312 7.752 241.918 7.752ZM257.241 12.584L256.825 15H255.417L255.833 12.584H251.065L251.257 11.464L255.945 3.688L257.177 4.216L252.937 11.304H256.057L256.633 8.12H258.041L257.465 11.304H258.841L258.617 12.584H257.241ZM275.967 5.64L271.823 12.472H270.335L268.463 5.576L266.815 15H265.375L267.343 3.8H269.407L271.295 10.936L275.519 3.8H277.807L275.839 15H274.319L275.967 5.64ZM282.448 15.192C281.659 15.192 280.976 15.032 280.4 14.712C279.824 14.392 279.376 13.9493 279.056 13.384C278.747 12.808 278.592 12.1573 278.592 11.432C278.592 10.504 278.779 9.66667 279.152 8.92C279.536 8.17333 280.069 7.58133 280.752 7.144C281.435 6.70667 282.24 6.488 283.168 6.488C283.957 6.488 284.64 6.648 285.216 6.968C285.792 7.288 286.235 7.73067 286.544 8.296C286.864 8.86133 287.024 9.512 287.024 10.248C287.024 11.1653 286.837 12.0027 286.464 12.76C286.091 13.5067 285.557 14.0987 284.864 14.536C284.181 14.9733 283.376 15.192 282.448 15.192ZM282.496 13.912C283.136 13.912 283.68 13.7573 284.128 13.448C284.587 13.128 284.939 12.7013 285.184 12.168C285.429 11.6347 285.552 11.0373 285.552 10.376C285.552 9.88533 285.456 9.448 285.264 9.064C285.072 8.66933 284.795 8.35467 284.432 8.12C284.069 7.88533 283.632 7.768 283.12 7.768C282.491 7.768 281.947 7.928 281.488 8.248C281.029 8.55733 280.677 8.97867 280.432 9.512C280.187 10.0453 280.064 10.6427 280.064 11.304C280.064 11.784 280.16 12.2213 280.352 12.616C280.544 13.0107 280.821 13.3253 281.184 13.56C281.547 13.7947 281.984 13.912 282.496 13.912ZM293.433 7.752C293.06 7.752 292.655 7.89067 292.217 8.168C291.78 8.44533 291.375 8.87733 291.001 9.464C290.639 10.04 290.377 10.7813 290.217 11.688L289.641 15H288.201L289.657 6.68H291.049L290.697 8.6C291.028 7.96 291.471 7.448 292.025 7.064C292.591 6.68 293.183 6.488 293.801 6.488C294.527 6.488 295.108 6.712 295.545 7.16C295.983 7.59733 296.201 8.136 296.201 8.776C296.201 9.04267 296.169 9.37867 296.105 9.784L295.193 15H293.753L294.633 10.024C294.687 9.768 294.719 9.58133 294.729 9.464C294.74 9.336 294.745 9.21867 294.745 9.112C294.745 8.696 294.623 8.36533 294.377 8.12C294.143 7.87467 293.828 7.752 293.433 7.752ZM297.911 6.984H299.383L300.151 4.36H301.255L300.791 6.984H303.095L302.887 8.232H300.567L299.895 12.12C299.874 12.2373 299.858 12.3493 299.847 12.456C299.837 12.552 299.831 12.6427 299.831 12.728C299.831 13.1013 299.943 13.3947 300.167 13.608C300.391 13.8107 300.685 13.912 301.047 13.912C301.357 13.912 301.618 13.8693 301.831 13.784C302.045 13.688 302.237 13.592 302.407 13.496L302.583 14.744C302.381 14.8613 302.125 14.9627 301.815 15.048C301.517 15.144 301.181 15.192 300.807 15.192C300.413 15.192 300.029 15.112 299.655 14.952C299.293 14.792 298.994 14.5413 298.759 14.2C298.525 13.848 298.407 13.3947 298.407 12.84C298.407 12.6053 298.429 12.344 298.471 12.056L299.127 8.232H297.703L297.911 6.984ZM310.417 9.112C310.417 8.70667 310.295 8.38133 310.049 8.136C309.815 7.88 309.505 7.752 309.121 7.752C308.748 7.752 308.337 7.88533 307.889 8.152C307.452 8.41867 307.052 8.83467 306.689 9.4C306.327 9.96533 306.065 10.696 305.905 11.592L305.313 15H303.873L305.953 3.16H307.393L306.465 8.424C306.796 7.83733 307.228 7.368 307.761 7.016C308.305 6.664 308.876 6.488 309.473 6.488C310.209 6.488 310.791 6.712 311.217 7.16C311.655 7.59733 311.873 8.136 311.873 8.776C311.873 9.04267 311.841 9.37867 311.777 9.784L310.865 15H309.425L310.305 10.024C310.359 9.768 310.391 9.58133 310.401 9.464C310.412 9.336 310.417 9.21867 310.417 9.112ZM319.119 8.488C318.81 8.27467 318.463 8.088 318.079 7.928C317.706 7.768 317.279 7.688 316.799 7.688C316.298 7.688 315.908 7.77333 315.631 7.944C315.354 8.11467 315.215 8.33867 315.215 8.616C315.215 8.776 315.258 8.93067 315.343 9.08C315.439 9.21867 315.604 9.368 315.839 9.528C316.084 9.688 316.426 9.88 316.863 10.104C317.588 10.4667 318.127 10.8453 318.479 11.24C318.831 11.624 319.007 12.0987 319.007 12.664C319.007 13.2293 318.858 13.6987 318.559 14.072C318.26 14.4453 317.86 14.728 317.359 14.92C316.858 15.1013 316.292 15.192 315.663 15.192C315.012 15.192 314.436 15.112 313.935 14.952C313.444 14.7813 313.018 14.5627 312.655 14.296L313.471 13.112C313.759 13.3467 314.1 13.544 314.495 13.704C314.89 13.864 315.322 13.944 315.791 13.944C316.324 13.944 316.746 13.8427 317.055 13.64C317.364 13.4373 317.519 13.1867 317.519 12.888C317.519 12.6107 317.402 12.3547 317.167 12.12C316.943 11.8853 316.5 11.6027 315.839 11.272C315.306 11.0053 314.89 10.7493 314.591 10.504C314.292 10.248 314.084 9.976 313.967 9.688C313.85 9.4 313.791 9.06933 313.791 8.696C313.791 8.26933 313.919 7.89067 314.175 7.56C314.431 7.22933 314.788 6.968 315.247 6.776C315.706 6.584 316.234 6.488 316.831 6.488C317.428 6.488 317.962 6.568 318.431 6.728C318.911 6.87733 319.332 7.05867 319.695 7.272L319.119 8.488Z" fill="#2B2F34"/>
<defs>
<clipPath id="clip0_8431_199">
<rect width="22" height="22" fill="white"/>
</clipPath>
</defs>
</svg>
