<svg width="425" height="22" viewBox="0 0 425 22" fill="none" xmlns="http://www.w3.org/2000/svg">
<path d="M15.1224 16.5V5.5H16.9557V16.5H15.1224ZM5.03906 16.5V5.5L13.2891 11L5.03906 16.5ZM6.8724 13.0625L9.98906 11L6.8724 8.9375V13.0625Z" fill="black"/>
<path d="M32.4 17H31.76V8.36C31.76 7.848 31.648 7.45333 31.424 7.176C31.2107 6.89867 30.8427 6.76 30.32 6.76H30.16V6.44H31.2C31.6907 6.44 32.1067 6.52 32.448 6.68C32.7893 6.84 33.0933 7.08 33.36 7.4L38.96 14.36V6.44H39.6V17.16H39.28L32.4 8.6V17ZM45.2438 17.16C44.5184 17.16 43.9051 16.9893 43.4037 16.648C42.9024 16.296 42.5237 15.8267 42.2677 15.24C42.0117 14.6427 41.8837 13.976 41.8837 13.24C41.8837 12.5147 42.0117 11.8533 42.2677 11.256C42.5237 10.6587 42.8917 10.1893 43.3717 9.848C43.8624 9.496 44.4331 9.32 45.0837 9.32C46.1611 9.32 46.9611 9.624 47.4837 10.232C48.0171 10.8293 48.2838 11.6987 48.2838 12.84L48.2517 13.48H43.4037C43.4037 14.376 43.5957 15.1067 43.9797 15.672C44.3637 16.2373 44.8917 16.52 45.5637 16.52C46.0651 16.52 46.4864 16.4133 46.8277 16.2C47.1797 15.9867 47.5051 15.6667 47.8038 15.24L48.1238 15.48C47.7717 16.0667 47.3611 16.4933 46.8917 16.76C46.4224 17.0267 45.8731 17.16 45.2438 17.16ZM46.7638 12.84C46.7638 11.9013 46.6251 11.1867 46.3477 10.696C46.0704 10.2053 45.6491 9.96 45.0837 9.96C44.7637 9.96 44.4757 10.088 44.2197 10.344C43.9637 10.5893 43.7611 10.9307 43.6117 11.368C43.4731 11.8053 43.4037 12.296 43.4037 12.84H46.7638ZM50.8222 11.08C50.3742 10.3013 49.8249 9.87467 49.1742 9.8V9.48H50.5342C50.8862 9.48 51.2169 9.592 51.5262 9.816C51.8356 10.04 52.1076 10.3547 52.3422 10.76L53.3342 12.44L55.4142 9.48H56.2142L53.6542 13.08L55.0462 15.4C55.4836 16.168 56.0596 16.5947 56.7742 16.68V17H55.3342C54.9822 17 54.6516 16.888 54.3422 16.664C54.0329 16.44 53.7609 16.1253 53.5262 15.72L52.5342 14.04L50.4542 17H49.6542L52.2142 13.4L50.8222 11.08ZM60.5547 17.16C59.9574 17.16 59.4881 16.9893 59.1467 16.648C58.8054 16.3067 58.6347 15.784 58.6347 15.08V10.12H57.5147V9.48H58.6347V8.04L59.4347 7.08H60.0747V9.48H61.9947V10.12H60.0747V15.08C60.0747 16.04 60.4481 16.52 61.1947 16.52C61.4507 16.52 61.6641 16.4933 61.8347 16.44C62.0161 16.3867 62.2027 16.3067 62.3947 16.2L62.5547 16.52C62.3094 16.7013 62.0374 16.856 61.7387 16.984C61.4401 17.1013 61.0454 17.16 60.5547 17.16ZM68.921 8.36C68.921 7.816 68.8463 7.416 68.697 7.16C68.5477 6.89333 68.249 6.76 67.801 6.76H67.481V6.44H71.641C72.8037 6.44 73.8117 6.632 74.665 7.016C75.529 7.4 75.961 8.14133 75.961 9.24C75.961 9.74133 75.7903 10.1947 75.449 10.6C75.1077 11.0053 74.585 11.3253 73.881 11.56C74.8623 11.72 75.545 12.0133 75.929 12.44C76.3237 12.856 76.521 13.416 76.521 14.12C76.521 15.1973 76.0943 15.9493 75.241 16.376C74.3983 16.792 73.3583 17 72.121 17H68.921V8.36ZM71.881 11.32C72.3183 11.32 72.729 11.24 73.113 11.08C73.5077 10.9093 73.8277 10.664 74.073 10.344C74.3183 10.0133 74.441 9.61867 74.441 9.16C74.441 8.68 74.297 8.28 74.009 7.96C73.721 7.62933 73.353 7.38933 72.905 7.24C72.4677 7.08 72.0197 7 71.561 7C71.1877 7 70.7877 7.05333 70.361 7.16V11.32H71.881ZM71.881 16.44C72.8517 16.44 73.5983 16.248 74.121 15.864C74.6543 15.48 74.921 14.9253 74.921 14.2C74.921 13.4747 74.6597 12.92 74.137 12.536C73.625 12.152 72.873 11.96 71.881 11.96H70.361V16.216C70.873 16.3653 71.3797 16.44 71.881 16.44ZM80.4421 17.16C80.1008 17.16 79.7541 17.0907 79.4021 16.952C79.0501 16.8027 78.7461 16.5627 78.4901 16.232C78.2448 15.9013 78.1221 15.464 78.1221 14.92C78.1221 14.1093 78.4955 13.5333 79.2421 13.192C79.9995 12.8507 80.9861 12.68 82.2021 12.68H82.6821C82.6821 11.6347 82.5381 10.92 82.2501 10.536C81.9621 10.152 81.5461 9.96 81.0021 9.96C80.5221 9.96 80.1381 10.0613 79.8501 10.264C79.5621 10.4667 79.3595 10.8187 79.2421 11.32H78.5221C78.5221 10.9573 78.5435 10.6747 78.5861 10.472C78.6288 10.2587 78.7408 10.0613 78.9221 9.88C79.1141 9.688 79.4288 9.54933 79.8661 9.464C80.3141 9.368 80.7995 9.32 81.3221 9.32C82.1861 9.32 82.8688 9.55467 83.3701 10.024C83.8715 10.4827 84.1221 11.368 84.1221 12.68V17H83.3221L82.7621 16.28H82.6821C82.4901 16.5253 82.2075 16.7333 81.8341 16.904C81.4608 17.0747 80.9968 17.16 80.4421 17.16ZM81.1621 16.44C81.5141 16.44 81.8075 16.3547 82.0421 16.184C82.2768 16.0133 82.4901 15.7787 82.6821 15.48V13.32H82.2021C81.4128 13.32 80.7888 13.4693 80.3301 13.768C79.8715 14.056 79.6421 14.44 79.6421 14.92C79.6421 15.4107 79.7861 15.7893 80.0741 16.056C80.3728 16.312 80.7355 16.44 81.1621 16.44ZM88.8973 17.16C88.2999 17.16 87.8306 16.9893 87.4893 16.648C87.1479 16.3067 86.9773 15.784 86.9773 15.08V10.12H85.8573V9.48H86.9773V8.04L87.7773 7.08H88.4173V9.48H90.3373V10.12H88.4173V15.08C88.4173 16.04 88.7906 16.52 89.5373 16.52C89.7933 16.52 90.0066 16.4933 90.1773 16.44C90.3586 16.3867 90.5453 16.3067 90.7373 16.2L90.8973 16.52C90.6519 16.7013 90.3799 16.856 90.0813 16.984C89.7826 17.1013 89.3879 17.16 88.8973 17.16ZM95.4875 17.16C94.7195 17.16 94.0688 16.9893 93.5355 16.648C93.0128 16.296 92.6182 15.8267 92.3515 15.24C92.0955 14.6427 91.9675 13.976 91.9675 13.24C91.9675 12.504 92.0955 11.8427 92.3515 11.256C92.6182 10.6587 93.0128 10.1893 93.5355 9.848C94.0688 9.496 94.7195 9.32 95.4875 9.32C96.6608 9.32 97.4342 9.50667 97.8075 9.88C97.9888 10.0613 98.1008 10.2853 98.1435 10.552C98.1862 10.808 98.2075 11.2773 98.2075 11.96H97.8875C97.8448 11.2987 97.6368 10.8027 97.2635 10.472C96.8902 10.1307 96.4048 9.96 95.8075 9.96C95.0395 9.96 94.4582 10.264 94.0635 10.872C93.6795 11.48 93.4875 12.2693 93.4875 13.24C93.4875 14.2107 93.6795 15 94.0635 15.608C94.4582 16.216 95.0395 16.52 95.8075 16.52C96.3515 16.52 96.7995 16.4187 97.1515 16.216C97.5035 16.0027 97.8288 15.6773 98.1275 15.24L98.4475 15.48C98.0955 16.0773 97.6795 16.5093 97.1995 16.776C96.7195 17.032 96.1488 17.16 95.4875 17.16ZM100.454 8.36C100.454 7.816 100.379 7.416 100.23 7.16C100.081 6.89333 99.7819 6.76 99.3339 6.76H99.0139V6.44H100.454C100.849 6.44 101.142 6.49333 101.334 6.6C101.537 6.696 101.681 6.87733 101.766 7.144C101.851 7.41067 101.894 7.816 101.894 8.36V10.12C102.118 9.896 102.406 9.70933 102.758 9.56C103.121 9.4 103.526 9.32 103.974 9.32C104.774 9.32 105.425 9.53333 105.926 9.96C106.438 10.3867 106.694 11.1333 106.694 12.2V17H105.254V12.2C105.254 11.4533 105.083 10.9093 104.742 10.568C104.411 10.216 103.995 10.04 103.494 10.04C102.929 10.04 102.395 10.3227 101.894 10.888V17H100.454V8.36ZM118.107 17.32C117.115 17.32 116.24 17.0747 115.483 16.584C114.736 16.0933 114.16 15.4213 113.755 14.568C113.349 13.7147 113.147 12.7653 113.147 11.72C113.147 10.6747 113.349 9.72533 113.755 8.872C114.16 8.01867 114.736 7.34667 115.483 6.856C116.24 6.36533 117.115 6.12 118.107 6.12C119.099 6.12 119.968 6.36533 120.715 6.856C121.472 7.34667 122.053 8.01867 122.459 8.872C122.864 9.72533 123.067 10.6747 123.067 11.72C123.067 12.7653 122.864 13.7147 122.459 14.568C122.053 15.4213 121.472 16.0933 120.715 16.584C119.968 17.0747 119.099 17.32 118.107 17.32ZM118.107 16.68C118.8 16.68 119.397 16.4773 119.899 16.072C120.411 15.6667 120.8 15.096 121.067 14.36C121.333 13.6133 121.467 12.7333 121.467 11.72C121.467 10.7067 121.333 9.832 121.067 9.096C120.8 8.34933 120.411 7.77333 119.899 7.368C119.397 6.96267 118.8 6.76 118.107 6.76C117.413 6.76 116.811 6.96267 116.299 7.368C115.797 7.77333 115.413 8.34933 115.147 9.096C114.88 9.832 114.747 10.7067 114.747 11.72C114.747 12.7333 114.88 13.6133 115.147 14.36C115.413 15.096 115.797 15.6667 116.299 16.072C116.811 16.4773 117.413 16.68 118.107 16.68ZM125.513 11.4C125.513 10.856 125.439 10.456 125.289 10.2C125.14 9.93333 124.841 9.8 124.393 9.8H124.073V9.48H125.513C125.908 9.48 126.207 9.53333 126.409 9.64C126.623 9.74667 126.777 9.90667 126.873 10.12H126.953C127.177 9.896 127.465 9.70933 127.817 9.56C128.18 9.4 128.585 9.32 129.033 9.32C129.833 9.32 130.484 9.53333 130.985 9.96C131.497 10.3867 131.753 11.1333 131.753 12.2V17H130.313V12.2C130.313 11.4533 130.143 10.9093 129.801 10.568C129.471 10.216 129.055 10.04 128.553 10.04C127.988 10.04 127.455 10.3227 126.953 10.888V17H125.513V11.4Z" fill="black"/>
<path d="M240.624 6.312C240.624 6.86667 240.491 7.368 240.224 7.816C239.968 8.25333 239.627 8.65333 239.2 9.016C238.773 9.37867 238.315 9.73067 237.824 10.072C237.344 10.4027 236.875 10.7493 236.416 11.112C235.968 11.464 235.579 11.848 235.248 12.264C234.917 12.68 234.699 13.1547 234.592 13.688H239.68L239.456 15H233.024C233.013 14.9147 233.003 14.8187 232.992 14.712C232.981 14.6053 232.976 14.504 232.976 14.408C232.976 13.6613 233.12 13.0053 233.408 12.44C233.707 11.864 234.085 11.352 234.544 10.904C235.013 10.456 235.504 10.0453 236.016 9.672C236.539 9.29867 237.029 8.94667 237.488 8.616C237.957 8.27467 238.336 7.928 238.624 7.576C238.923 7.224 239.072 6.84 239.072 6.424C239.072 5.95467 238.912 5.58133 238.592 5.304C238.272 5.02667 237.877 4.888 237.408 4.888C236.949 4.888 236.533 4.97333 236.16 5.144C235.797 5.31467 235.435 5.55467 235.072 5.864L234.4 4.776C234.837 4.424 235.312 4.14133 235.824 3.928C236.336 3.71467 236.923 3.608 237.584 3.608C238.192 3.608 238.72 3.72533 239.168 3.96C239.627 4.19467 239.984 4.51467 240.24 4.92C240.496 5.32533 240.624 5.78933 240.624 6.312ZM243.642 15C243.866 13.656 244.127 12.4987 244.426 11.528C244.735 10.5573 245.098 9.70933 245.514 8.984C245.94 8.25867 246.447 7.592 247.034 6.984C247.62 6.376 248.303 5.752 249.082 5.112H243.754L243.978 3.8H251.066L250.874 4.952C250.159 5.54933 249.535 6.12533 249.002 6.68C248.468 7.224 248.004 7.77867 247.61 8.344C247.226 8.89867 246.89 9.50133 246.602 10.152C246.324 10.8027 246.074 11.5227 245.85 12.312C245.636 13.1013 245.439 13.9973 245.258 15H243.642ZM252.068 6.984H253.539L254.308 4.36H255.411L254.948 6.984H257.252L257.044 8.232H254.724L254.052 12.12C254.03 12.2373 254.014 12.3493 254.004 12.456C253.993 12.552 253.988 12.6427 253.988 12.728C253.988 13.1013 254.1 13.3947 254.324 13.608C254.548 13.8107 254.841 13.912 255.204 13.912C255.513 13.912 255.774 13.8693 255.988 13.784C256.201 13.688 256.393 13.592 256.564 13.496L256.74 14.744C256.537 14.8613 256.281 14.9627 255.972 15.048C255.673 15.144 255.337 15.192 254.964 15.192C254.569 15.192 254.185 15.112 253.812 14.952C253.449 14.792 253.15 14.5413 252.916 14.2C252.681 13.848 252.564 13.3947 252.564 12.84C252.564 12.6053 252.585 12.344 252.628 12.056L253.284 8.232H251.86L252.068 6.984ZM264.574 9.112C264.574 8.70667 264.451 8.38133 264.206 8.136C263.971 7.88 263.662 7.752 263.278 7.752C262.904 7.752 262.494 7.88533 262.046 8.152C261.608 8.41867 261.208 8.83467 260.846 9.4C260.483 9.96533 260.222 10.696 260.062 11.592L259.47 15H258.03L260.11 3.16H261.549L260.622 8.424C260.952 7.83733 261.384 7.368 261.918 7.016C262.462 6.664 263.032 6.488 263.63 6.488C264.366 6.488 264.947 6.712 265.374 7.16C265.811 7.59733 266.03 8.136 266.03 8.776C266.03 9.04267 265.998 9.37867 265.934 9.784L265.022 15H263.582L264.462 10.024C264.515 9.768 264.547 9.58133 264.558 9.464C264.568 9.336 264.574 9.21867 264.574 9.112ZM274.2 3.928C274.638 3.832 275.075 3.75733 275.512 3.704C275.95 3.64 276.488 3.608 277.128 3.608C277.982 3.608 278.707 3.74133 279.304 4.008C279.912 4.27467 280.408 4.64267 280.792 5.112C281.176 5.57067 281.459 6.09867 281.64 6.696C281.822 7.28267 281.912 7.90133 281.912 8.552C281.912 9.832 281.656 10.9733 281.144 11.976C280.632 12.9787 279.907 13.768 278.968 14.344C278.03 14.9093 276.91 15.192 275.608 15.192C274.926 15.192 274.318 15.144 273.784 15.048C273.251 14.9627 272.766 14.84 272.328 14.68L274.2 3.928ZM277 4.888C276.723 4.888 276.462 4.904 276.216 4.936C275.971 4.95733 275.742 4.99467 275.528 5.048L274.024 13.672C274.27 13.736 274.531 13.7893 274.808 13.832C275.086 13.864 275.384 13.88 275.704 13.88C276.632 13.88 277.443 13.6613 278.136 13.224C278.84 12.7867 279.384 12.1787 279.768 11.4C280.152 10.6107 280.344 9.704 280.344 8.68C280.344 8.008 280.227 7.384 279.992 6.808C279.758 6.232 279.395 5.768 278.904 5.416C278.414 5.064 277.779 4.888 277 4.888ZM286.442 15.192C285.738 15.192 285.114 15.0427 284.57 14.744C284.036 14.4347 283.615 13.9973 283.306 13.432C283.007 12.856 282.858 12.1787 282.858 11.4C282.858 10.5147 283.039 9.69867 283.402 8.952C283.775 8.20533 284.298 7.608 284.97 7.16C285.652 6.712 286.447 6.488 287.354 6.488C287.972 6.488 288.495 6.60533 288.922 6.84C289.359 7.07467 289.695 7.37867 289.93 7.752C290.164 8.12533 290.282 8.52533 290.282 8.952C290.282 9.53867 290.143 10.024 289.866 10.408C289.588 10.792 289.231 11.0907 288.794 11.304C288.356 11.5067 287.882 11.6507 287.37 11.736C286.868 11.8213 286.388 11.864 285.93 11.864C285.642 11.864 285.354 11.8533 285.066 11.832C284.788 11.8 284.543 11.768 284.33 11.736C284.415 12.44 284.666 12.9787 285.082 13.352C285.498 13.7253 286.031 13.912 286.682 13.912C287.215 13.912 287.69 13.8427 288.106 13.704C288.522 13.5653 288.874 13.4267 289.162 13.288L289.29 14.568C288.97 14.7173 288.564 14.8613 288.074 15C287.583 15.128 287.039 15.192 286.442 15.192ZM287.242 7.704C286.74 7.704 286.287 7.832 285.882 8.088C285.476 8.33333 285.14 8.67467 284.874 9.112C284.618 9.53867 284.447 10.0293 284.362 10.584C284.607 10.6267 284.852 10.664 285.098 10.696C285.354 10.7173 285.631 10.728 285.93 10.728C286.826 10.728 287.535 10.6053 288.058 10.36C288.58 10.104 288.842 9.672 288.842 9.064C288.842 8.69067 288.692 8.37067 288.394 8.104C288.106 7.83733 287.722 7.704 287.242 7.704ZM297.443 8.36C297.176 8.18933 296.888 8.05067 296.579 7.944C296.27 7.82667 295.928 7.768 295.555 7.768C294.968 7.768 294.451 7.92267 294.003 8.232C293.566 8.54133 293.224 8.96267 292.979 9.496C292.734 10.0187 292.611 10.6107 292.611 11.272C292.611 12.0827 292.814 12.728 293.219 13.208C293.635 13.6773 294.19 13.912 294.883 13.912C295.288 13.912 295.646 13.864 295.955 13.768C296.264 13.672 296.547 13.56 296.803 13.432L296.979 14.696C296.712 14.8133 296.387 14.9253 296.003 15.032C295.63 15.1387 295.176 15.192 294.643 15.192C293.95 15.192 293.336 15.0373 292.803 14.728C292.28 14.4187 291.87 13.9867 291.571 13.432C291.283 12.8667 291.139 12.2107 291.139 11.464C291.139 10.568 291.32 9.74667 291.683 9C292.056 8.24267 292.579 7.63467 293.251 7.176C293.934 6.71733 294.739 6.488 295.667 6.488C296.168 6.488 296.611 6.552 296.995 6.68C297.39 6.79733 297.736 6.94667 298.035 7.128L297.443 8.36ZM311.327 6.312C311.327 6.86667 311.194 7.368 310.927 7.816C310.671 8.25333 310.33 8.65333 309.903 9.016C309.476 9.37867 309.018 9.73067 308.527 10.072C308.047 10.4027 307.578 10.7493 307.119 11.112C306.671 11.464 306.282 11.848 305.951 12.264C305.62 12.68 305.402 13.1547 305.295 13.688H310.383L310.159 15H303.727C303.716 14.9147 303.706 14.8187 303.695 14.712C303.684 14.6053 303.679 14.504 303.679 14.408C303.679 13.6613 303.823 13.0053 304.111 12.44C304.41 11.864 304.788 11.352 305.247 10.904C305.716 10.456 306.207 10.0453 306.719 9.672C307.242 9.29867 307.732 8.94667 308.191 8.616C308.66 8.27467 309.039 7.928 309.327 7.576C309.626 7.224 309.775 6.84 309.775 6.424C309.775 5.95467 309.615 5.58133 309.295 5.304C308.975 5.02667 308.58 4.888 308.111 4.888C307.652 4.888 307.236 4.97333 306.863 5.144C306.5 5.31467 306.138 5.55467 305.775 5.864L305.103 4.776C305.54 4.424 306.015 4.14133 306.527 3.928C307.039 3.71467 307.626 3.608 308.287 3.608C308.895 3.608 309.423 3.72533 309.871 3.96C310.33 4.19467 310.687 4.51467 310.943 4.92C311.199 5.32533 311.327 5.78933 311.327 6.312ZM316.473 15.192C315.406 15.192 314.59 14.8187 314.025 14.072C313.47 13.3147 313.193 12.2907 313.193 11C313.193 10.104 313.289 9.21867 313.481 8.344C313.673 7.45867 313.966 6.664 314.361 5.96C314.756 5.24533 315.257 4.67467 315.865 4.248C316.484 3.82133 317.209 3.608 318.041 3.608C319.108 3.608 319.918 3.98667 320.473 4.744C321.038 5.49067 321.321 6.50933 321.321 7.8C321.321 8.696 321.225 9.58667 321.033 10.472C320.841 11.3467 320.548 12.1413 320.153 12.856C319.758 13.56 319.252 14.1253 318.633 14.552C318.025 14.9787 317.305 15.192 316.473 15.192ZM316.633 13.88C317.145 13.88 317.593 13.7147 317.977 13.384C318.372 13.0427 318.702 12.584 318.969 12.008C319.236 11.432 319.433 10.776 319.561 10.04C319.7 9.29333 319.769 8.51467 319.769 7.704C319.769 6.808 319.609 6.12 319.289 5.64C318.98 5.16 318.51 4.92 317.881 4.92C317.369 4.92 316.916 5.09067 316.521 5.432C316.137 5.76267 315.812 6.216 315.545 6.792C315.278 7.368 315.076 8.02933 314.937 8.776C314.809 9.512 314.745 10.2853 314.745 11.096C314.745 11.992 314.905 12.68 315.225 13.16C315.545 13.64 316.014 13.88 316.633 13.88ZM330.515 6.312C330.515 6.86667 330.381 7.368 330.115 7.816C329.859 8.25333 329.517 8.65333 329.091 9.016C328.664 9.37867 328.205 9.73067 327.715 10.072C327.235 10.4027 326.765 10.7493 326.307 11.112C325.859 11.464 325.469 11.848 325.139 12.264C324.808 12.68 324.589 13.1547 324.483 13.688H329.571L329.347 15H322.915C322.904 14.9147 322.893 14.8187 322.883 14.712C322.872 14.6053 322.867 14.504 322.867 14.408C322.867 13.6613 323.011 13.0053 323.299 12.44C323.597 11.864 323.976 11.352 324.435 10.904C324.904 10.456 325.395 10.0453 325.907 9.672C326.429 9.29867 326.92 8.94667 327.379 8.616C327.848 8.27467 328.227 7.928 328.515 7.576C328.813 7.224 328.963 6.84 328.963 6.424C328.963 5.95467 328.803 5.58133 328.483 5.304C328.163 5.02667 327.768 4.888 327.299 4.888C326.84 4.888 326.424 4.97333 326.051 5.144C325.688 5.31467 325.325 5.55467 324.963 5.864L324.291 4.776C324.728 4.424 325.203 4.14133 325.715 3.928C326.227 3.71467 326.813 3.608 327.475 3.608C328.083 3.608 328.611 3.72533 329.059 3.96C329.517 4.19467 329.875 4.51467 330.131 4.92C330.387 5.32533 330.515 5.78933 330.515 6.312ZM340.108 6.312C340.108 6.86667 339.975 7.368 339.708 7.816C339.452 8.25333 339.111 8.65333 338.684 9.016C338.258 9.37867 337.799 9.73067 337.308 10.072C336.828 10.4027 336.359 10.7493 335.9 11.112C335.452 11.464 335.063 11.848 334.732 12.264C334.402 12.68 334.183 13.1547 334.076 13.688H339.164L338.94 15H332.508C332.498 14.9147 332.487 14.8187 332.476 14.712C332.466 14.6053 332.46 14.504 332.46 14.408C332.46 13.6613 332.604 13.0053 332.892 12.44C333.191 11.864 333.57 11.352 334.028 10.904C334.498 10.456 334.988 10.0453 335.5 9.672C336.023 9.29867 336.514 8.94667 336.972 8.616C337.442 8.27467 337.82 7.928 338.108 7.576C338.407 7.224 338.556 6.84 338.556 6.424C338.556 5.95467 338.396 5.58133 338.076 5.304C337.756 5.02667 337.362 4.888 336.892 4.888C336.434 4.888 336.018 4.97333 335.644 5.144C335.282 5.31467 334.919 5.55467 334.556 5.864L333.884 4.776C334.322 4.424 334.796 4.14133 335.308 3.928C335.82 3.71467 336.407 3.608 337.068 3.608C337.676 3.608 338.204 3.72533 338.652 3.96C339.111 4.19467 339.468 4.51467 339.724 4.92C339.98 5.32533 340.108 5.78933 340.108 6.312Z" fill="#2B2F34"/>
</svg>
