<svg width="425" height="38" viewBox="0 0 425 38" fill="none" xmlns="http://www.w3.org/2000/svg">
<path d="M10.0026 2.5L0.835938 7.5L4.16927 9.31667V14.3167L10.0026 17.5L15.8359 14.3167V9.31667L17.5026 8.40833V14.1667H19.1693V7.5L10.0026 2.5ZM15.6859 7.5L10.0026 10.6L4.31927 7.5L10.0026 4.4L15.6859 7.5ZM14.1693 13.3333L10.0026 15.6L5.83594 13.3333V10.225L10.0026 12.5L14.1693 10.225V13.3333Z" fill="black"/>
<path d="M29.696 7.36C29.696 6.816 29.6213 6.416 29.472 6.16C29.3227 5.89333 29.024 5.76 28.576 5.76H28.256V5.44H35.072C35.9787 5.44 36.432 5.86667 36.432 6.72V7.92H36.112C36.112 6.69333 35.4453 6.08 34.112 6.08H31.136V10.24H35.456V10.88H31.136V15.36H33.936C34.672 15.36 35.248 15.2267 35.664 14.96C36.08 14.6933 36.4107 14.24 36.656 13.6L36.976 13.68L36.416 15.2C36.224 15.7333 35.824 16 35.216 16H29.696V7.36ZM38.9735 7.36C38.9735 6.816 38.8988 6.416 38.7495 6.16C38.6002 5.89333 38.3015 5.76 37.8535 5.76H37.5335V5.44H38.9735C39.3682 5.44 39.6615 5.49333 39.8535 5.6C40.0562 5.696 40.2002 5.87733 40.2855 6.144C40.3708 6.41067 40.4135 6.816 40.4135 7.36V16H38.9735V7.36ZM43.9525 7.52C43.7072 7.52 43.4938 7.41867 43.3125 7.216C43.1418 7.01333 43.0565 6.77333 43.0565 6.496C43.0565 6.272 43.1205 6.096 43.2485 5.968C43.3872 5.84 43.5685 5.776 43.7925 5.776C44.0378 5.776 44.2458 5.87733 44.4165 6.08C44.5978 6.28267 44.6885 6.52267 44.6885 6.8C44.6885 7.024 44.6192 7.2 44.4805 7.328C44.3525 7.456 44.1765 7.52 43.9525 7.52ZM43.3445 10.4C43.3445 9.856 43.2698 9.456 43.1205 9.2C42.9712 8.93333 42.6725 8.8 42.2245 8.8H41.9045V8.48H43.3445C43.7392 8.48 44.0325 8.53333 44.2245 8.64C44.4272 8.736 44.5712 8.91733 44.6565 9.184C44.7418 9.45067 44.7845 9.856 44.7845 10.4V16H43.3445V10.4ZM50.146 19.2C49.0687 19.2 48.21 19.0027 47.57 18.608C46.9407 18.2133 46.626 17.584 46.626 16.72C46.626 16.2293 46.7913 15.8027 47.122 15.44C47.4527 15.0773 47.874 14.8107 48.386 14.64C47.9593 14.4053 47.746 14.0853 47.746 13.68C47.746 13.4667 47.794 13.3013 47.89 13.184C47.986 13.0667 48.1247 12.9387 48.306 12.8C47.9647 12.6293 47.6767 12.3627 47.442 12C47.218 11.6373 47.106 11.2107 47.106 10.72C47.106 9.12 48.1193 8.32 50.146 8.32H53.106V8.72L52.066 8.88V8.96C52.3967 9.13067 52.6633 9.37067 52.866 9.68C53.0793 9.97867 53.186 10.3253 53.186 10.72C53.186 12.32 52.1727 13.12 50.146 13.12C49.026 13.12 48.466 13.3067 48.466 13.68C48.466 14.0533 49.026 14.24 50.146 14.24C51.1807 14.24 52.0233 14.448 52.674 14.864C53.3353 15.2693 53.666 15.888 53.666 16.72C53.666 17.584 53.346 18.2133 52.706 18.608C52.0767 19.0027 51.2233 19.2 50.146 19.2ZM50.146 12.56C50.626 12.56 51.01 12.416 51.298 12.128C51.5967 11.8293 51.746 11.36 51.746 10.72C51.746 10.112 51.5967 9.65333 51.298 9.344C51.01 9.03467 50.626 8.88 50.146 8.88C49.666 8.88 49.2767 9.02933 48.978 9.328C48.69 9.616 48.546 10.08 48.546 10.72C48.546 11.36 48.69 11.8293 48.978 12.128C49.2767 12.416 49.666 12.56 50.146 12.56ZM50.146 18.56C50.786 18.56 51.2927 18.4053 51.666 18.096C52.0393 17.7973 52.226 17.3387 52.226 16.72C52.226 15.6533 51.586 15.04 50.306 14.88L49.426 14.8C48.9887 14.9707 48.6527 15.2107 48.418 15.52C48.1833 15.8293 48.066 16.2293 48.066 16.72C48.066 17.3387 48.2527 17.7973 48.626 18.096C48.9993 18.4053 49.506 18.56 50.146 18.56ZM56.405 7.52C56.1597 7.52 55.9463 7.41867 55.765 7.216C55.5943 7.01333 55.509 6.77333 55.509 6.496C55.509 6.272 55.573 6.096 55.701 5.968C55.8397 5.84 56.021 5.776 56.245 5.776C56.4903 5.776 56.6983 5.87733 56.869 6.08C57.0503 6.28267 57.141 6.52267 57.141 6.8C57.141 7.024 57.0717 7.2 56.933 7.328C56.805 7.456 56.629 7.52 56.405 7.52ZM55.797 10.4C55.797 9.856 55.7223 9.456 55.573 9.2C55.4237 8.93333 55.125 8.8 54.677 8.8H54.357V8.48H55.797C56.1917 8.48 56.485 8.53333 56.677 8.64C56.8797 8.736 57.0237 8.91733 57.109 9.184C57.1943 9.45067 57.237 9.856 57.237 10.4V16H55.797V10.4ZM63.5864 16.16C63.0424 16.16 62.5944 16.0747 62.2424 15.904C61.8904 15.7333 61.6184 15.5253 61.4264 15.28H61.3464L60.7864 16H59.9864V7.36C59.9864 6.816 59.9117 6.416 59.7624 6.16C59.613 5.89333 59.3144 5.76 58.8664 5.76H58.5464V5.44H59.9864C60.381 5.44 60.6744 5.49333 60.8664 5.6C61.069 5.696 61.213 5.87733 61.2984 6.144C61.3837 6.41067 61.4264 6.816 61.4264 7.36V8.8C61.7357 8.65067 62.045 8.53333 62.3544 8.448C62.6637 8.36267 63.021 8.32 63.4264 8.32C64.4184 8.32 65.1704 8.688 65.6824 9.424C66.205 10.16 66.4664 11.0987 66.4664 12.24C66.4664 13.3707 66.2157 14.3093 65.7144 15.056C65.213 15.792 64.5037 16.16 63.5864 16.16ZM63.1064 15.52C63.7144 15.52 64.173 15.2213 64.4824 14.624C64.7917 14.016 64.9464 13.2213 64.9464 12.24C64.9464 11.248 64.781 10.4533 64.4504 9.856C64.1304 9.25867 63.629 8.96 62.9464 8.96C62.7224 8.96 62.493 9.00267 62.2584 9.088C62.0237 9.17333 61.7464 9.29067 61.4264 9.44V14.56C61.6184 14.848 61.8424 15.0827 62.0984 15.264C62.365 15.4347 62.701 15.52 63.1064 15.52ZM69.5294 7.52C69.284 7.52 69.0707 7.41867 68.8894 7.216C68.7187 7.01333 68.6334 6.77333 68.6334 6.496C68.6334 6.272 68.6974 6.096 68.8254 5.968C68.964 5.84 69.1454 5.776 69.3694 5.776C69.6147 5.776 69.8227 5.87733 69.9934 6.08C70.1747 6.28267 70.2654 6.52267 70.2654 6.8C70.2654 7.024 70.196 7.2 70.0574 7.328C69.9294 7.456 69.7534 7.52 69.5294 7.52ZM68.9214 10.4C68.9214 9.856 68.8467 9.456 68.6974 9.2C68.548 8.93333 68.2494 8.8 67.8014 8.8H67.4814V8.48H68.9214C69.316 8.48 69.6094 8.53333 69.8014 8.64C70.004 8.736 70.148 8.91733 70.2334 9.184C70.3187 9.45067 70.3614 9.856 70.3614 10.4V16H68.9214V10.4ZM73.1279 7.36C73.1279 6.816 73.0532 6.416 72.9039 6.16C72.7545 5.89333 72.4559 5.76 72.0079 5.76H71.6879V5.44H73.1279C73.5225 5.44 73.8159 5.49333 74.0079 5.6C74.2105 5.696 74.3545 5.87733 74.4399 6.144C74.5252 6.41067 74.5679 6.816 74.5679 7.36V16H73.1279V7.36ZM78.1069 7.52C77.8615 7.52 77.6482 7.41867 77.4669 7.216C77.2962 7.01333 77.2109 6.77333 77.2109 6.496C77.2109 6.272 77.2749 6.096 77.4029 5.968C77.5415 5.84 77.7229 5.776 77.9469 5.776C78.1922 5.776 78.4002 5.87733 78.5709 6.08C78.7522 6.28267 78.8429 6.52267 78.8429 6.8C78.8429 7.024 78.7735 7.2 78.6349 7.328C78.5069 7.456 78.3309 7.52 78.1069 7.52ZM77.4989 10.4C77.4989 9.856 77.4242 9.456 77.2749 9.2C77.1255 8.93333 76.8269 8.8 76.3789 8.8H76.0589V8.48H77.4989C77.8935 8.48 78.1869 8.53333 78.3789 8.64C78.5815 8.736 78.7255 8.91733 78.8109 9.184C78.8962 9.45067 78.9389 9.856 78.9389 10.4V16H77.4989V10.4ZM83.7404 16.16C83.143 16.16 82.6737 15.9893 82.3324 15.648C81.991 15.3067 81.8204 14.784 81.8204 14.08V9.12H80.7004V8.48H81.8204V7.04L82.6204 6.08H83.2604V8.48H85.1804V9.12H83.2604V14.08C83.2604 15.04 83.6337 15.52 84.3804 15.52C84.6364 15.52 84.8497 15.4933 85.0204 15.44C85.2017 15.3867 85.3884 15.3067 85.5804 15.2L85.7404 15.52C85.495 15.7013 85.223 15.856 84.9244 15.984C84.6257 16.1013 84.231 16.16 83.7404 16.16ZM87.7706 18.72C88.2933 18.72 88.72 18.5973 89.0506 18.352C89.392 18.1173 89.6853 17.68 89.9306 17.04L90.2506 16.16L87.6906 9.92C87.392 9.152 86.8053 8.72533 85.9306 8.64V8.32H87.2906C88.2186 8.32 88.8586 8.74667 89.2106 9.6L91.0346 14.032L93.0506 8.48H93.8506L90.7306 17.04C90.4213 17.8827 90.08 18.4533 89.7066 18.752C89.3333 19.0507 88.848 19.2 88.2506 19.2H87.7706V18.72Z" fill="black"/>
<path d="M232.64 3.8H239.2L238.976 5.112H233.92L233.328 8.536H237.52L237.296 9.784H233.104L232.192 15H230.672L232.64 3.8ZM240.901 5.256C240.602 5.256 240.373 5.17067 240.213 5C240.064 4.81867 239.989 4.61067 239.989 4.376C239.989 4.03467 240.096 3.76267 240.309 3.56C240.522 3.34667 240.789 3.24 241.109 3.24C241.408 3.24 241.632 3.33067 241.781 3.512C241.941 3.68267 242.021 3.88533 242.021 4.12C242.021 4.45067 241.914 4.72267 241.701 4.936C241.488 5.14933 241.221 5.256 240.901 5.256ZM239.829 15H238.389L239.845 6.68H241.285L239.829 15ZM247.715 7.752C247.341 7.752 246.936 7.89067 246.499 8.168C246.061 8.44533 245.656 8.87733 245.283 9.464C244.92 10.04 244.659 10.7813 244.499 11.688L243.923 15H242.483L243.939 6.68H245.331L244.979 8.6C245.309 7.96 245.752 7.448 246.307 7.064C246.872 6.68 247.464 6.488 248.083 6.488C248.808 6.488 249.389 6.712 249.827 7.16C250.264 7.59733 250.483 8.136 250.483 8.776C250.483 9.04267 250.451 9.37867 250.387 9.784L249.475 15H248.035L248.915 10.024C248.968 9.768 249 9.58133 249.011 9.464C249.021 9.336 249.027 9.21867 249.027 9.112C249.027 8.696 248.904 8.36533 248.659 8.12C248.424 7.87467 248.109 7.752 247.715 7.752ZM251.905 11.72C251.905 10.6853 252.129 9.77867 252.577 9C253.035 8.21067 253.665 7.59733 254.465 7.16C255.265 6.712 256.177 6.488 257.201 6.488C257.83 6.488 258.379 6.552 258.849 6.68C259.329 6.808 259.723 6.936 260.033 7.064L259.025 12.744C259.014 12.7973 259.003 12.8613 258.993 12.936C258.993 13 258.993 13.0693 258.993 13.144C258.993 13.4427 259.078 13.656 259.249 13.784C259.419 13.9013 259.643 13.96 259.921 13.96L259.425 15.08C258.849 15.08 258.406 14.9413 258.097 14.664C257.798 14.376 257.649 13.9333 257.649 13.336C257.35 13.848 256.971 14.2853 256.513 14.648C256.065 15.0107 255.537 15.192 254.929 15.192C254.406 15.192 253.915 15.0533 253.457 14.776C252.998 14.488 252.625 14.088 252.337 13.576C252.049 13.0533 251.905 12.4347 251.905 11.72ZM258.449 7.912C258.246 7.848 258.033 7.8 257.809 7.768C257.595 7.72533 257.334 7.704 257.025 7.704C256.289 7.704 255.649 7.86933 255.105 8.2C254.561 8.53067 254.134 8.98933 253.825 9.576C253.526 10.152 253.377 10.808 253.377 11.544C253.377 12.056 253.467 12.488 253.649 12.84C253.841 13.192 254.086 13.4587 254.385 13.64C254.683 13.8213 254.993 13.912 255.312 13.912C255.75 13.912 256.15 13.7627 256.513 13.464C256.875 13.1653 257.185 12.7493 257.441 12.216C257.707 11.6827 257.899 11.0747 258.017 10.392L258.449 7.912ZM263.117 12.12C263.096 12.2587 263.08 12.3867 263.069 12.504C263.059 12.6107 263.053 12.7067 263.053 12.792C263.053 13.1547 263.16 13.4373 263.373 13.64C263.597 13.8427 263.891 13.944 264.253 13.944C264.435 13.944 264.616 13.9227 264.797 13.88C264.979 13.8373 265.144 13.7787 265.293 13.704L265.437 14.872C265.245 14.968 265.021 15.0427 264.765 15.096C264.509 15.16 264.232 15.192 263.933 15.192C263.293 15.192 262.744 15.0107 262.285 14.648C261.837 14.2747 261.613 13.7147 261.613 12.968C261.613 12.6907 261.635 12.4187 261.677 12.152L263.245 3.16H264.685L263.117 12.12ZM274.428 13.72C274.833 13.72 275.228 13.592 275.612 13.336C276.007 13.08 276.353 12.712 276.652 12.232C276.951 11.7413 277.159 11.1493 277.276 10.456L277.932 6.68H279.372L277.916 15.096C277.788 15.832 277.591 16.4347 277.324 16.904C277.068 17.3733 276.764 17.736 276.412 17.992C276.071 18.2587 275.708 18.4453 275.324 18.552C274.94 18.6587 274.561 18.712 274.188 18.712C273.463 18.712 272.844 18.5627 272.332 18.264C271.831 17.9653 271.42 17.6187 271.1 17.224L272.22 16.392C272.743 17.1067 273.431 17.464 274.284 17.464C274.817 17.464 275.287 17.2667 275.692 16.872C276.097 16.4773 276.385 15.8053 276.556 14.856L276.86 13.16C276.54 13.672 276.135 14.1093 275.644 14.472C275.153 14.824 274.588 15 273.948 15C273.532 15 273.148 14.9093 272.796 14.728C272.444 14.536 272.161 14.264 271.948 13.912C271.735 13.56 271.628 13.144 271.628 12.664C271.628 12.5467 271.628 12.4133 271.628 12.264C271.639 12.1147 271.66 11.9547 271.692 11.784L272.556 6.68H273.996L273.116 11.752C273.084 11.944 273.068 12.1253 273.068 12.296C273.068 12.776 273.201 13.1333 273.468 13.368C273.745 13.6027 274.065 13.72 274.428 13.72ZM283.973 15.192C283.269 15.192 282.645 15.0427 282.101 14.744C281.568 14.4347 281.146 13.9973 280.837 13.432C280.538 12.856 280.389 12.1787 280.389 11.4C280.389 10.5147 280.57 9.69867 280.933 8.952C281.306 8.20533 281.829 7.608 282.501 7.16C283.184 6.712 283.978 6.488 284.885 6.488C285.504 6.488 286.026 6.60533 286.453 6.84C286.89 7.07467 287.226 7.37867 287.461 7.752C287.696 8.12533 287.813 8.52533 287.813 8.952C287.813 9.53867 287.674 10.024 287.397 10.408C287.12 10.792 286.762 11.0907 286.325 11.304C285.888 11.5067 285.413 11.6507 284.901 11.736C284.4 11.8213 283.92 11.864 283.461 11.864C283.173 11.864 282.885 11.8533 282.597 11.832C282.32 11.8 282.074 11.768 281.861 11.736C281.946 12.44 282.197 12.9787 282.613 13.352C283.029 13.7253 283.562 13.912 284.213 13.912C284.746 13.912 285.221 13.8427 285.637 13.704C286.053 13.5653 286.405 13.4267 286.693 13.288L286.821 14.568C286.501 14.7173 286.096 14.8613 285.605 15C285.114 15.128 284.57 15.192 283.973 15.192ZM284.773 7.704C284.272 7.704 283.818 7.832 283.413 8.088C283.008 8.33333 282.672 8.67467 282.405 9.112C282.149 9.53867 281.978 10.0293 281.893 10.584C282.138 10.6267 282.384 10.664 282.629 10.696C282.885 10.7173 283.162 10.728 283.461 10.728C284.357 10.728 285.066 10.6053 285.589 10.36C286.112 10.104 286.373 9.672 286.373 9.064C286.373 8.69067 286.224 8.37067 285.925 8.104C285.637 7.83733 285.253 7.704 284.773 7.704ZM288.67 11.72C288.67 10.6853 288.894 9.77867 289.342 9C289.801 8.21067 290.43 7.59733 291.23 7.16C292.03 6.712 292.942 6.488 293.966 6.488C294.595 6.488 295.145 6.552 295.614 6.68C296.094 6.808 296.489 6.936 296.798 7.064L295.79 12.744C295.779 12.7973 295.769 12.8613 295.758 12.936C295.758 13 295.758 13.0693 295.758 13.144C295.758 13.4427 295.843 13.656 296.014 13.784C296.185 13.9013 296.409 13.96 296.686 13.96L296.19 15.08C295.614 15.08 295.171 14.9413 294.862 14.664C294.563 14.376 294.414 13.9333 294.414 13.336C294.115 13.848 293.737 14.2853 293.278 14.648C292.83 15.0107 292.302 15.192 291.694 15.192C291.171 15.192 290.681 15.0533 290.222 14.776C289.763 14.488 289.39 14.088 289.102 13.576C288.814 13.0533 288.67 12.4347 288.67 11.72ZM295.214 7.912C295.011 7.848 294.798 7.8 294.574 7.768C294.361 7.72533 294.099 7.704 293.79 7.704C293.054 7.704 292.414 7.86933 291.87 8.2C291.326 8.53067 290.899 8.98933 290.59 9.576C290.291 10.152 290.142 10.808 290.142 11.544C290.142 12.056 290.233 12.488 290.414 12.84C290.606 13.192 290.851 13.4587 291.15 13.64C291.449 13.8213 291.758 13.912 292.078 13.912C292.515 13.912 292.915 13.7627 293.278 13.464C293.641 13.1653 293.95 12.7493 294.206 12.216C294.473 11.6827 294.665 11.0747 294.782 10.392L295.214 7.912ZM299.435 9.016C299.446 8.96267 299.451 8.904 299.451 8.84C299.462 8.76533 299.467 8.69067 299.467 8.616C299.467 8.31733 299.382 8.10933 299.211 7.992C299.04 7.864 298.816 7.8 298.539 7.8L299.035 6.68C299.6 6.68 300.032 6.81867 300.331 7.096C300.64 7.36267 300.795 7.76267 300.795 8.296V8.616C301.104 7.85867 301.499 7.31467 301.979 6.984C302.47 6.65333 303.024 6.488 303.643 6.488C303.888 6.488 304.096 6.50933 304.267 6.552C304.448 6.584 304.598 6.62667 304.715 6.68L304.075 8.088C303.947 8.03467 303.814 7.99733 303.675 7.976C303.536 7.95467 303.376 7.944 303.195 7.944C302.811 7.944 302.427 8.08267 302.043 8.36C301.67 8.62667 301.328 9.07467 301.019 9.704C300.72 10.3333 300.475 11.1973 300.283 12.296L299.819 15H298.379L299.435 9.016ZM315.244 8.488C314.935 8.27467 314.588 8.088 314.204 7.928C313.831 7.768 313.404 7.688 312.924 7.688C312.423 7.688 312.033 7.77333 311.756 7.944C311.479 8.11467 311.34 8.33867 311.34 8.616C311.34 8.776 311.383 8.93067 311.468 9.08C311.564 9.21867 311.729 9.368 311.964 9.528C312.209 9.688 312.551 9.88 312.988 10.104C313.713 10.4667 314.252 10.8453 314.604 11.24C314.956 11.624 315.132 12.0987 315.132 12.664C315.132 13.2293 314.983 13.6987 314.684 14.072C314.385 14.4453 313.985 14.728 313.484 14.92C312.983 15.1013 312.417 15.192 311.788 15.192C311.137 15.192 310.561 15.112 310.06 14.952C309.569 14.7813 309.143 14.5627 308.78 14.296L309.596 13.112C309.884 13.3467 310.225 13.544 310.62 13.704C311.015 13.864 311.447 13.944 311.916 13.944C312.449 13.944 312.871 13.8427 313.18 13.64C313.489 13.4373 313.644 13.1867 313.644 12.888C313.644 12.6107 313.527 12.3547 313.292 12.12C313.068 11.8853 312.625 11.6027 311.964 11.272C311.431 11.0053 311.015 10.7493 310.716 10.504C310.417 10.248 310.209 9.976 310.092 9.688C309.975 9.4 309.916 9.06933 309.916 8.696C309.916 8.26933 310.044 7.89067 310.3 7.56C310.556 7.22933 310.913 6.968 311.372 6.776C311.831 6.584 312.359 6.488 312.956 6.488C313.553 6.488 314.087 6.568 314.556 6.728C315.036 6.87733 315.457 7.05867 315.82 7.272L315.244 8.488ZM316.818 6.984H318.289L319.058 4.36H320.161L319.698 6.984H322.002L321.794 8.232H319.474L318.802 12.12C318.78 12.2373 318.764 12.3493 318.754 12.456C318.743 12.552 318.738 12.6427 318.738 12.728C318.738 13.1013 318.85 13.3947 319.074 13.608C319.298 13.8107 319.591 13.912 319.954 13.912C320.263 13.912 320.524 13.8693 320.738 13.784C320.951 13.688 321.143 13.592 321.314 13.496L321.49 14.744C321.287 14.8613 321.031 14.9627 320.722 15.048C320.423 15.144 320.087 15.192 319.714 15.192C319.319 15.192 318.935 15.112 318.562 14.952C318.199 14.792 317.9 14.5413 317.666 14.2C317.431 13.848 317.314 13.3947 317.314 12.84C317.314 12.6053 317.335 12.344 317.378 12.056L318.034 8.232H316.61L316.818 6.984ZM325.213 15.192C324.787 15.192 324.392 15.096 324.029 14.904C323.677 14.712 323.395 14.4453 323.181 14.104C322.968 13.752 322.861 13.336 322.861 12.856C322.861 12.7173 322.867 12.5787 322.877 12.44C322.888 12.2907 322.904 12.136 322.925 11.976L323.837 6.68H325.277L324.349 11.944C324.339 12.0507 324.328 12.1467 324.317 12.232C324.307 12.3067 324.301 12.392 324.301 12.488C324.301 12.968 324.44 13.3253 324.717 13.56C324.995 13.7947 325.32 13.912 325.693 13.912C326.099 13.912 326.493 13.7893 326.877 13.544C327.272 13.288 327.619 12.9253 327.917 12.456C328.216 11.9867 328.424 11.4213 328.541 10.76L329.261 6.68H330.701L329.645 12.744C329.635 12.7973 329.624 12.8613 329.613 12.936C329.613 13 329.613 13.0693 329.613 13.144C329.613 13.4427 329.699 13.656 329.869 13.784C330.04 13.9013 330.264 13.96 330.541 13.96L330.045 15.08C329.469 15.08 329.027 14.9413 328.717 14.664C328.419 14.376 328.269 13.9333 328.269 13.336V13.192C327.491 14.5253 326.472 15.192 325.213 15.192ZM339.601 15.08C339.025 15.08 338.582 14.9413 338.273 14.664C337.974 14.376 337.825 13.928 337.825 13.32C337.516 13.832 337.126 14.2747 336.657 14.648C336.188 15.0107 335.644 15.192 335.025 15.192C334.492 15.192 333.99 15.0533 333.521 14.776C333.052 14.488 332.673 14.088 332.385 13.576C332.108 13.0533 331.969 12.4347 331.969 11.72C331.969 10.8987 332.092 10.168 332.337 9.528C332.582 8.87733 332.908 8.328 333.313 7.88C333.729 7.432 334.182 7.09067 334.673 6.856C335.174 6.61067 335.681 6.488 336.193 6.488C336.758 6.488 337.244 6.62667 337.649 6.904C338.065 7.18133 338.385 7.52267 338.609 7.928L339.457 3.16H340.897L339.201 12.744C339.19 12.7973 339.18 12.8613 339.169 12.936C339.169 13 339.169 13.0693 339.169 13.144C339.169 13.4427 339.254 13.656 339.425 13.784C339.596 13.9013 339.82 13.96 340.097 13.96L339.601 15.08ZM335.409 13.912C335.814 13.912 336.198 13.784 336.561 13.528C336.934 13.272 337.254 12.9147 337.521 12.456C337.798 11.9867 337.99 11.4373 338.097 10.808L338.385 9.16C338.172 8.712 337.884 8.36533 337.521 8.12C337.158 7.864 336.758 7.736 336.321 7.736C335.83 7.736 335.361 7.89067 334.913 8.2C334.476 8.49867 334.118 8.93067 333.841 9.496C333.574 10.0507 333.441 10.7227 333.441 11.512C333.441 12.0347 333.532 12.4773 333.713 12.84C333.905 13.192 334.15 13.4587 334.449 13.64C334.758 13.8213 335.078 13.912 335.409 13.912ZM345.114 15.192C344.41 15.192 343.786 15.0427 343.242 14.744C342.708 14.4347 342.287 13.9973 341.978 13.432C341.679 12.856 341.53 12.1787 341.53 11.4C341.53 10.5147 341.711 9.69867 342.074 8.952C342.447 8.20533 342.97 7.608 343.642 7.16C344.324 6.712 345.119 6.488 346.026 6.488C346.644 6.488 347.167 6.60533 347.594 6.84C348.031 7.07467 348.367 7.37867 348.602 7.752C348.836 8.12533 348.954 8.52533 348.954 8.952C348.954 9.53867 348.815 10.024 348.538 10.408C348.26 10.792 347.903 11.0907 347.466 11.304C347.028 11.5067 346.554 11.6507 346.042 11.736C345.54 11.8213 345.06 11.864 344.602 11.864C344.314 11.864 344.026 11.8533 343.738 11.832C343.46 11.8 343.215 11.768 343.002 11.736C343.087 12.44 343.338 12.9787 343.754 13.352C344.17 13.7253 344.703 13.912 345.354 13.912C345.887 13.912 346.362 13.8427 346.778 13.704C347.194 13.5653 347.546 13.4267 347.834 13.288L347.962 14.568C347.642 14.7173 347.236 14.8613 346.746 15C346.255 15.128 345.711 15.192 345.114 15.192ZM345.914 7.704C345.412 7.704 344.959 7.832 344.554 8.088C344.148 8.33333 343.812 8.67467 343.546 9.112C343.29 9.53867 343.119 10.0293 343.034 10.584C343.279 10.6267 343.524 10.664 343.77 10.696C344.026 10.7173 344.303 10.728 344.602 10.728C345.498 10.728 346.207 10.6053 346.73 10.36C347.252 10.104 347.514 9.672 347.514 9.064C347.514 8.69067 347.364 8.37067 347.066 8.104C346.778 7.83733 346.394 7.704 345.914 7.704ZM355.043 7.752C354.669 7.752 354.264 7.89067 353.827 8.168C353.389 8.44533 352.984 8.87733 352.611 9.464C352.248 10.04 351.987 10.7813 351.827 11.688L351.251 15H349.811L351.267 6.68H352.659L352.307 8.6C352.637 7.96 353.08 7.448 353.635 7.064C354.2 6.68 354.792 6.488 355.411 6.488C356.136 6.488 356.717 6.712 357.155 7.16C357.592 7.59733 357.811 8.136 357.811 8.776C357.811 9.04267 357.779 9.37867 357.715 9.784L356.803 15H355.363L356.243 10.024C356.296 9.768 356.328 9.58133 356.339 9.464C356.349 9.336 356.355 9.21867 356.355 9.112C356.355 8.696 356.232 8.36533 355.987 8.12C355.752 7.87467 355.437 7.752 355.043 7.752ZM359.521 6.984H360.993L361.761 4.36H362.865L362.401 6.984H364.705L364.497 8.232H362.177L361.505 12.12C361.483 12.2373 361.467 12.3493 361.457 12.456C361.446 12.552 361.441 12.6427 361.441 12.728C361.441 13.1013 361.553 13.3947 361.777 13.608C362.001 13.8107 362.294 13.912 362.657 13.912C362.966 13.912 363.227 13.8693 363.441 13.784C363.654 13.688 363.846 13.592 364.017 13.496L364.193 14.744C363.99 14.8613 363.734 14.9627 363.425 15.048C363.126 15.144 362.79 15.192 362.417 15.192C362.022 15.192 361.638 15.112 361.265 14.952C360.902 14.792 360.603 14.5413 360.369 14.2C360.134 13.848 360.017 13.3947 360.017 12.84C360.017 12.6053 360.038 12.344 360.081 12.056L360.737 8.232H359.313L359.521 6.984ZM371.307 8.488C370.997 8.27467 370.651 8.088 370.267 7.928C369.893 7.768 369.467 7.688 368.987 7.688C368.485 7.688 368.096 7.77333 367.819 7.944C367.541 8.11467 367.403 8.33867 367.403 8.616C367.403 8.776 367.445 8.93067 367.531 9.08C367.627 9.21867 367.792 9.368 368.027 9.528C368.272 9.688 368.613 9.88 369.051 10.104C369.776 10.4667 370.315 10.8453 370.667 11.24C371.019 11.624 371.195 12.0987 371.195 12.664C371.195 13.2293 371.045 13.6987 370.747 14.072C370.448 14.4453 370.048 14.728 369.547 14.92C369.045 15.1013 368.48 15.192 367.851 15.192C367.2 15.192 366.624 15.112 366.123 14.952C365.632 14.7813 365.205 14.5627 364.843 14.296L365.659 13.112C365.947 13.3467 366.288 13.544 366.683 13.704C367.077 13.864 367.509 13.944 367.979 13.944C368.512 13.944 368.933 13.8427 369.243 13.64C369.552 13.4373 369.707 13.1867 369.707 12.888C369.707 12.6107 369.589 12.3547 369.355 12.12C369.131 11.8853 368.688 11.6027 368.027 11.272C367.493 11.0053 367.077 10.7493 366.779 10.504C366.48 10.248 366.272 9.976 366.155 9.688C366.037 9.4 365.979 9.06933 365.979 8.696C365.979 8.26933 366.107 7.89067 366.363 7.56C366.619 7.22933 366.976 6.968 367.435 6.776C367.893 6.584 368.421 6.488 369.019 6.488C369.616 6.488 370.149 6.568 370.619 6.728C371.099 6.87733 371.52 7.05867 371.883 7.272L371.307 8.488ZM381.245 15.192C380.456 15.192 379.773 15.032 379.197 14.712C378.621 14.392 378.173 13.9493 377.853 13.384C377.544 12.808 377.389 12.1573 377.389 11.432C377.389 10.504 377.576 9.66667 377.949 8.92C378.333 8.17333 378.866 7.58133 379.549 7.144C380.232 6.70667 381.037 6.488 381.965 6.488C382.754 6.488 383.437 6.648 384.013 6.968C384.589 7.288 385.032 7.73067 385.341 8.296C385.661 8.86133 385.821 9.512 385.821 10.248C385.821 11.1653 385.634 12.0027 385.261 12.76C384.888 13.5067 384.354 14.0987 383.661 14.536C382.978 14.9733 382.173 15.192 381.245 15.192ZM381.293 13.912C381.933 13.912 382.477 13.7573 382.925 13.448C383.384 13.128 383.736 12.7013 383.981 12.168C384.226 11.6347 384.349 11.0373 384.349 10.376C384.349 9.88533 384.253 9.448 384.061 9.064C383.869 8.66933 383.592 8.35467 383.229 8.12C382.866 7.88533 382.429 7.768 381.917 7.768C381.288 7.768 380.744 7.928 380.285 8.248C379.826 8.55733 379.474 8.97867 379.229 9.512C378.984 10.0453 378.861 10.6427 378.861 11.304C378.861 11.784 378.957 12.2213 379.149 12.616C379.341 13.0107 379.618 13.3253 379.981 13.56C380.344 13.7947 380.781 13.912 381.293 13.912ZM388.294 9.016C388.305 8.96267 388.31 8.904 388.31 8.84C388.321 8.76533 388.326 8.69067 388.326 8.616C388.326 8.31733 388.241 8.10933 388.07 7.992C387.9 7.864 387.676 7.8 387.398 7.8L387.894 6.68C388.46 6.68 388.892 6.81867 389.19 7.096C389.5 7.36267 389.654 7.76267 389.654 8.296V8.616C389.964 7.85867 390.358 7.31467 390.838 6.984C391.329 6.65333 391.884 6.488 392.502 6.488C392.748 6.488 392.956 6.50933 393.126 6.552C393.308 6.584 393.457 6.62667 393.574 6.68L392.934 8.088C392.806 8.03467 392.673 7.99733 392.534 7.976C392.396 7.95467 392.236 7.944 392.054 7.944C391.67 7.944 391.286 8.08267 390.902 8.36C390.529 8.62667 390.188 9.07467 389.878 9.704C389.58 10.3333 389.334 11.1973 389.142 12.296L388.678 15H387.238L388.294 9.016ZM236.56 23.936C235.76 23.936 235.04 24.1707 234.4 24.64C233.76 25.1093 233.253 25.76 232.88 26.592C232.507 27.424 232.32 28.384 232.32 29.472C232.32 30.4747 232.56 31.2907 233.04 31.92C233.52 32.5493 234.181 32.864 235.024 32.864C235.515 32.864 235.968 32.7413 236.384 32.496C236.8 32.2507 237.152 31.9147 237.44 31.488C237.728 31.0613 237.92 30.5813 238.016 30.048L238.16 29.264H235.824L236.032 28.064H239.792L239.168 31.664C239.157 31.7173 239.147 31.7813 239.136 31.856C239.136 31.92 239.136 31.9893 239.136 32.064C239.136 32.352 239.216 32.56 239.376 32.688C239.547 32.816 239.781 32.88 240.08 32.88L239.552 34.08C238.379 34.08 237.792 33.5093 237.792 32.368C237.461 32.88 237.035 33.312 236.512 33.664C235.989 34.016 235.355 34.192 234.608 34.192C233.872 34.192 233.211 34.016 232.624 33.664C232.048 33.3013 231.589 32.784 231.248 32.112C230.917 31.4293 230.752 30.6187 230.752 29.68C230.752 28.6667 230.896 27.728 231.184 26.864C231.472 26 231.877 25.2533 232.4 24.624C232.923 23.984 233.541 23.488 234.256 23.136C234.981 22.784 235.776 22.608 236.64 22.608C237.323 22.608 237.925 22.704 238.448 22.896C238.971 23.0773 239.451 23.312 239.888 23.6L239.088 24.816C238.704 24.5493 238.315 24.336 237.92 24.176C237.536 24.016 237.083 23.936 236.56 23.936ZM242.482 28.016C242.492 27.9627 242.498 27.904 242.498 27.84C242.508 27.7653 242.514 27.6907 242.514 27.616C242.514 27.3173 242.428 27.1093 242.258 26.992C242.087 26.864 241.863 26.8 241.586 26.8L242.082 25.68C242.647 25.68 243.079 25.8187 243.378 26.096C243.687 26.3627 243.842 26.7627 243.842 27.296V27.616C244.151 26.8587 244.546 26.3147 245.026 25.984C245.516 25.6533 246.071 25.488 246.69 25.488C246.935 25.488 247.143 25.5093 247.314 25.552C247.495 25.584 247.644 25.6267 247.762 25.68L247.122 27.088C246.994 27.0347 246.86 26.9973 246.722 26.976C246.583 26.9547 246.423 26.944 246.242 26.944C245.858 26.944 245.474 27.0827 245.09 27.36C244.716 27.6267 244.375 28.0747 244.066 28.704C243.767 29.3333 243.522 30.1973 243.33 31.296L242.866 34H241.426L242.482 28.016ZM247.514 30.72C247.514 29.6853 247.738 28.7787 248.186 28C248.645 27.2107 249.274 26.5973 250.074 26.16C250.874 25.712 251.786 25.488 252.81 25.488C253.439 25.488 253.989 25.552 254.458 25.68C254.938 25.808 255.333 25.936 255.642 26.064L254.634 31.744C254.623 31.7973 254.613 31.8613 254.602 31.936C254.602 32 254.602 32.0693 254.602 32.144C254.602 32.4427 254.687 32.656 254.858 32.784C255.029 32.9013 255.253 32.96 255.53 32.96L255.034 34.08C254.458 34.08 254.015 33.9413 253.706 33.664C253.407 33.376 253.258 32.9333 253.258 32.336C252.959 32.848 252.581 33.2853 252.122 33.648C251.674 34.0107 251.146 34.192 250.538 34.192C250.015 34.192 249.525 34.0533 249.066 33.776C248.607 33.488 248.234 33.088 247.946 32.576C247.658 32.0533 247.514 31.4347 247.514 30.72ZM254.058 26.912C253.855 26.848 253.642 26.8 253.418 26.768C253.205 26.7253 252.943 26.704 252.634 26.704C251.898 26.704 251.258 26.8693 250.714 27.2C250.17 27.5307 249.743 27.9893 249.434 28.576C249.135 29.152 248.986 29.808 248.986 30.544C248.986 31.056 249.077 31.488 249.258 31.84C249.45 32.192 249.695 32.4587 249.994 32.64C250.293 32.8213 250.602 32.912 250.922 32.912C251.359 32.912 251.759 32.7627 252.122 32.464C252.485 32.1653 252.794 31.7493 253.05 31.216C253.317 30.6827 253.509 30.0747 253.626 29.392L254.058 26.912ZM264.617 34.08C264.041 34.08 263.598 33.9413 263.289 33.664C262.99 33.376 262.841 32.928 262.841 32.32C262.531 32.832 262.142 33.2747 261.673 33.648C261.203 34.0107 260.659 34.192 260.041 34.192C259.507 34.192 259.006 34.0533 258.537 33.776C258.067 33.488 257.689 33.088 257.401 32.576C257.123 32.0533 256.985 31.4347 256.985 30.72C256.985 29.8987 257.107 29.168 257.353 28.528C257.598 27.8773 257.923 27.328 258.329 26.88C258.745 26.432 259.198 26.0907 259.689 25.856C260.19 25.6107 260.697 25.488 261.209 25.488C261.774 25.488 262.259 25.6267 262.665 25.904C263.081 26.1813 263.401 26.5227 263.625 26.928L264.473 22.16H265.913L264.217 31.744C264.206 31.7973 264.195 31.8613 264.185 31.936C264.185 32 264.185 32.0693 264.185 32.144C264.185 32.4427 264.27 32.656 264.441 32.784C264.611 32.9013 264.835 32.96 265.113 32.96L264.617 34.08ZM260.424 32.912C260.83 32.912 261.214 32.784 261.577 32.528C261.95 32.272 262.27 31.9147 262.537 31.456C262.814 30.9867 263.006 30.4373 263.113 29.808L263.401 28.16C263.187 27.712 262.899 27.3653 262.537 27.12C262.174 26.864 261.774 26.736 261.337 26.736C260.846 26.736 260.377 26.8907 259.929 27.2C259.491 27.4987 259.134 27.9307 258.857 28.496C258.59 29.0507 258.457 29.7227 258.457 30.512C258.457 31.0347 258.547 31.4773 258.729 31.84C258.921 32.192 259.166 32.4587 259.465 32.64C259.774 32.8213 260.094 32.912 260.424 32.912ZM269.135 34.192C268.709 34.192 268.314 34.096 267.951 33.904C267.599 33.712 267.317 33.4453 267.103 33.104C266.89 32.752 266.783 32.336 266.783 31.856C266.783 31.7173 266.789 31.5787 266.799 31.44C266.81 31.2907 266.826 31.136 266.847 30.976L267.759 25.68H269.199L268.271 30.944C268.261 31.0507 268.25 31.1467 268.239 31.232C268.229 31.3067 268.223 31.392 268.223 31.488C268.223 31.968 268.362 32.3253 268.639 32.56C268.917 32.7947 269.242 32.912 269.615 32.912C270.021 32.912 270.415 32.7893 270.799 32.544C271.194 32.288 271.541 31.9253 271.839 31.456C272.138 30.9867 272.346 30.4213 272.463 29.76L273.183 25.68H274.623L273.567 31.744C273.557 31.7973 273.546 31.8613 273.535 31.936C273.535 32 273.535 32.0693 273.535 32.144C273.535 32.4427 273.621 32.656 273.791 32.784C273.962 32.9013 274.186 32.96 274.463 32.96L273.967 34.08C273.391 34.08 272.949 33.9413 272.639 33.664C272.341 33.376 272.191 32.9333 272.191 32.336V32.192C271.413 33.5253 270.394 34.192 269.135 34.192ZM275.811 30.72C275.811 29.6853 276.035 28.7787 276.483 28C276.941 27.2107 277.571 26.5973 278.371 26.16C279.171 25.712 280.083 25.488 281.107 25.488C281.736 25.488 282.285 25.552 282.755 25.68C283.235 25.808 283.629 25.936 283.939 26.064L282.931 31.744C282.92 31.7973 282.909 31.8613 282.899 31.936C282.899 32 282.899 32.0693 282.899 32.144C282.899 32.4427 282.984 32.656 283.155 32.784C283.325 32.9013 283.549 32.96 283.827 32.96L283.331 34.08C282.755 34.08 282.312 33.9413 282.003 33.664C281.704 33.376 281.555 32.9333 281.555 32.336C281.256 32.848 280.877 33.2853 280.419 33.648C279.971 34.0107 279.443 34.192 278.835 34.192C278.312 34.192 277.821 34.0533 277.363 33.776C276.904 33.488 276.531 33.088 276.243 32.576C275.955 32.0533 275.811 31.4347 275.811 30.72ZM282.355 26.912C282.152 26.848 281.939 26.8 281.715 26.768C281.501 26.7253 281.24 26.704 280.931 26.704C280.195 26.704 279.555 26.8693 279.011 27.2C278.467 27.5307 278.04 27.9893 277.731 28.576C277.432 29.152 277.283 29.808 277.283 30.544C277.283 31.056 277.373 31.488 277.555 31.84C277.747 32.192 277.992 32.4587 278.291 32.64C278.589 32.8213 278.899 32.912 279.219 32.912C279.656 32.912 280.056 32.7627 280.419 32.464C280.781 32.1653 281.091 31.7493 281.347 31.216C281.613 30.6827 281.805 30.0747 281.923 29.392L282.355 26.912ZM285.568 25.984H287.039L287.808 23.36H288.911L288.448 25.984H290.752L290.544 27.232H288.224L287.552 31.12C287.53 31.2373 287.514 31.3493 287.504 31.456C287.493 31.552 287.488 31.6427 287.488 31.728C287.488 32.1013 287.6 32.3947 287.824 32.608C288.048 32.8107 288.341 32.912 288.704 32.912C289.013 32.912 289.274 32.8693 289.488 32.784C289.701 32.688 289.893 32.592 290.064 32.496L290.24 33.744C290.037 33.8613 289.781 33.9627 289.472 34.048C289.173 34.144 288.837 34.192 288.464 34.192C288.069 34.192 287.685 34.112 287.312 33.952C286.949 33.792 286.65 33.5413 286.416 33.2C286.181 32.848 286.064 32.3947 286.064 31.84C286.064 31.6053 286.085 31.344 286.128 31.056L286.784 27.232H285.36L285.568 25.984ZM294.957 34.192C294.253 34.192 293.629 34.0427 293.085 33.744C292.552 33.4347 292.131 32.9973 291.821 32.432C291.523 31.856 291.373 31.1787 291.373 30.4C291.373 29.5147 291.555 28.6987 291.917 27.952C292.291 27.2053 292.813 26.608 293.485 26.16C294.168 25.712 294.963 25.488 295.869 25.488C296.488 25.488 297.011 25.6053 297.437 25.84C297.875 26.0747 298.211 26.3787 298.445 26.752C298.68 27.1253 298.797 27.5253 298.797 27.952C298.797 28.5387 298.659 29.024 298.381 29.408C298.104 29.792 297.747 30.0907 297.309 30.304C296.872 30.5067 296.397 30.6507 295.885 30.736C295.384 30.8213 294.904 30.864 294.445 30.864C294.157 30.864 293.869 30.8533 293.581 30.832C293.304 30.8 293.059 30.768 292.845 30.736C292.931 31.44 293.181 31.9787 293.597 32.352C294.013 32.7253 294.547 32.912 295.197 32.912C295.731 32.912 296.205 32.8427 296.621 32.704C297.037 32.5653 297.389 32.4267 297.677 32.288L297.805 33.568C297.485 33.7173 297.08 33.8613 296.589 34C296.099 34.128 295.555 34.192 294.957 34.192ZM295.757 26.704C295.256 26.704 294.803 26.832 294.397 27.088C293.992 27.3333 293.656 27.6747 293.389 28.112C293.133 28.5387 292.963 29.0293 292.877 29.584C293.123 29.6267 293.368 29.664 293.613 29.696C293.869 29.7173 294.147 29.728 294.445 29.728C295.341 29.728 296.051 29.6053 296.573 29.36C297.096 29.104 297.357 28.672 297.357 28.064C297.357 27.6907 297.208 27.3707 296.909 27.104C296.621 26.8373 296.237 26.704 295.757 26.704ZM305.479 27.488C305.169 27.2747 304.823 27.088 304.439 26.928C304.065 26.768 303.639 26.688 303.159 26.688C302.657 26.688 302.268 26.7733 301.991 26.944C301.713 27.1147 301.575 27.3387 301.575 27.616C301.575 27.776 301.617 27.9307 301.703 28.08C301.799 28.2187 301.964 28.368 302.199 28.528C302.444 28.688 302.785 28.88 303.223 29.104C303.948 29.4667 304.487 29.8453 304.839 30.24C305.191 30.624 305.367 31.0987 305.367 31.664C305.367 32.2293 305.217 32.6987 304.919 33.072C304.62 33.4453 304.22 33.728 303.719 33.92C303.217 34.1013 302.652 34.192 302.023 34.192C301.372 34.192 300.796 34.112 300.295 33.952C299.804 33.7813 299.377 33.5627 299.014 33.296L299.831 32.112C300.119 32.3467 300.46 32.544 300.855 32.704C301.249 32.864 301.681 32.944 302.151 32.944C302.684 32.944 303.105 32.8427 303.415 32.64C303.724 32.4373 303.879 32.1867 303.879 31.888C303.879 31.6107 303.761 31.3547 303.527 31.12C303.303 30.8853 302.86 30.6027 302.199 30.272C301.665 30.0053 301.249 29.7493 300.951 29.504C300.652 29.248 300.444 28.976 300.327 28.688C300.209 28.4 300.151 28.0693 300.151 27.696C300.151 27.2693 300.279 26.8907 300.535 26.56C300.791 26.2293 301.148 25.968 301.607 25.776C302.065 25.584 302.593 25.488 303.191 25.488C303.788 25.488 304.321 25.568 304.791 25.728C305.271 25.8773 305.692 26.0587 306.055 26.272L305.479 27.488ZM309.26 32.96C309.025 33.7707 308.657 34.48 308.156 35.088C307.655 35.696 307.057 36.1867 306.364 36.56L305.612 36.112C306.135 35.568 306.577 35.0187 306.94 34.464C307.303 33.9093 307.617 33.2747 307.884 32.56L309.26 32.96ZM315.318 33.408L321.462 22.8H323.174L325.622 33.824L324.166 34.16L323.494 30.96H318.31L316.534 34.128L315.318 33.408ZM319.03 29.68H323.222L322.086 24.288L319.03 29.68ZM328.711 31.12C328.69 31.2587 328.674 31.3867 328.663 31.504C328.652 31.6107 328.647 31.7067 328.647 31.792C328.647 32.1547 328.754 32.4373 328.967 32.64C329.191 32.8427 329.484 32.944 329.847 32.944C330.028 32.944 330.21 32.9227 330.391 32.88C330.572 32.8373 330.738 32.7787 330.887 32.704L331.031 33.872C330.839 33.968 330.615 34.0427 330.359 34.096C330.103 34.16 329.826 34.192 329.527 34.192C328.887 34.192 328.338 34.0107 327.879 33.648C327.431 33.2747 327.207 32.7147 327.207 31.968C327.207 31.6907 327.228 31.4187 327.271 31.152L328.839 22.16H330.279L328.711 31.12ZM333.727 31.12C333.705 31.2587 333.689 31.3867 333.679 31.504C333.668 31.6107 333.663 31.7067 333.663 31.792C333.663 32.1547 333.769 32.4373 333.983 32.64C334.207 32.8427 334.5 32.944 334.863 32.944C335.044 32.944 335.225 32.9227 335.407 32.88C335.588 32.8373 335.753 32.7787 335.903 32.704L336.047 33.872C335.855 33.968 335.631 34.0427 335.375 34.096C335.119 34.16 334.841 34.192 334.543 34.192C333.903 34.192 333.353 34.0107 332.895 33.648C332.447 33.2747 332.223 32.7147 332.223 31.968C332.223 31.6907 332.244 31.4187 332.287 31.152L333.855 22.16H335.295L333.727 31.12ZM349.742 34.08C349.166 34.08 348.723 33.9413 348.414 33.664C348.115 33.376 347.966 32.928 347.966 32.32C347.656 32.832 347.267 33.2747 346.798 33.648C346.328 34.0107 345.784 34.192 345.166 34.192C344.632 34.192 344.131 34.0533 343.662 33.776C343.192 33.488 342.814 33.088 342.526 32.576C342.248 32.0533 342.11 31.4347 342.11 30.72C342.11 29.8987 342.232 29.168 342.478 28.528C342.723 27.8773 343.048 27.328 343.454 26.88C343.87 26.432 344.323 26.0907 344.814 25.856C345.315 25.6107 345.822 25.488 346.334 25.488C346.899 25.488 347.384 25.6267 347.79 25.904C348.206 26.1813 348.526 26.5227 348.75 26.928L349.598 22.16H351.038L349.342 31.744C349.331 31.7973 349.32 31.8613 349.31 31.936C349.31 32 349.31 32.0693 349.31 32.144C349.31 32.4427 349.395 32.656 349.566 32.784C349.736 32.9013 349.96 32.96 350.238 32.96L349.742 34.08ZM345.549 32.912C345.955 32.912 346.339 32.784 346.702 32.528C347.075 32.272 347.395 31.9147 347.662 31.456C347.939 30.9867 348.131 30.4373 348.238 29.808L348.526 28.16C348.312 27.712 348.024 27.3653 347.662 27.12C347.299 26.864 346.899 26.736 346.462 26.736C345.971 26.736 345.502 26.8907 345.054 27.2C344.616 27.4987 344.259 27.9307 343.982 28.496C343.715 29.0507 343.582 29.7227 343.582 30.512C343.582 31.0347 343.672 31.4773 343.854 31.84C344.046 32.192 344.291 32.4587 344.59 32.64C344.899 32.8213 345.219 32.912 345.549 32.912ZM355.254 34.192C354.55 34.192 353.926 34.0427 353.382 33.744C352.849 33.4347 352.427 32.9973 352.118 32.432C351.819 31.856 351.67 31.1787 351.67 30.4C351.67 29.5147 351.851 28.6987 352.214 27.952C352.587 27.2053 353.11 26.608 353.782 26.16C354.465 25.712 355.259 25.488 356.166 25.488C356.785 25.488 357.307 25.6053 357.734 25.84C358.171 26.0747 358.507 26.3787 358.742 26.752C358.977 27.1253 359.094 27.5253 359.094 27.952C359.094 28.5387 358.955 29.024 358.678 29.408C358.401 29.792 358.043 30.0907 357.606 30.304C357.169 30.5067 356.694 30.6507 356.182 30.736C355.681 30.8213 355.201 30.864 354.742 30.864C354.454 30.864 354.166 30.8533 353.878 30.832C353.601 30.8 353.355 30.768 353.142 30.736C353.227 31.44 353.478 31.9787 353.894 32.352C354.31 32.7253 354.843 32.912 355.494 32.912C356.027 32.912 356.502 32.8427 356.918 32.704C357.334 32.5653 357.686 32.4267 357.974 32.288L358.102 33.568C357.782 33.7173 357.377 33.8613 356.886 34C356.395 34.128 355.851 34.192 355.254 34.192ZM356.054 26.704C355.553 26.704 355.099 26.832 354.694 27.088C354.289 27.3333 353.953 27.6747 353.686 28.112C353.43 28.5387 353.259 29.0293 353.174 29.584C353.419 29.6267 353.665 29.664 353.91 29.696C354.166 29.7173 354.443 29.728 354.742 29.728C355.638 29.728 356.347 29.6053 356.87 29.36C357.393 29.104 357.654 28.672 357.654 28.064C357.654 27.6907 357.505 27.3707 357.206 27.104C356.918 26.8373 356.534 26.704 356.054 26.704ZM365.231 25.488C365.861 25.488 366.415 25.552 366.895 25.68C367.375 25.808 367.77 25.936 368.079 26.064L366.687 34.096C366.559 34.832 366.362 35.4347 366.095 35.904C365.839 36.3733 365.535 36.736 365.183 36.992C364.842 37.2587 364.479 37.4453 364.095 37.552C363.711 37.6587 363.333 37.712 362.959 37.712C362.234 37.712 361.615 37.5627 361.103 37.264C360.602 36.9653 360.191 36.6187 359.871 36.224L360.991 35.392C361.514 36.1067 362.202 36.464 363.055 36.464C363.589 36.464 364.058 36.2667 364.463 35.872C364.869 35.4773 365.157 34.8053 365.327 33.856L365.599 32.288C365.301 32.768 364.927 33.1733 364.479 33.504C364.042 33.8347 363.546 34 362.991 34C362.479 34 361.989 33.872 361.519 33.616C361.061 33.36 360.682 32.9867 360.383 32.496C360.095 32.0053 359.951 31.4027 359.951 30.688C359.951 29.6533 360.181 28.7467 360.639 27.968C361.098 27.1893 361.727 26.5813 362.527 26.144C363.327 25.7067 364.229 25.488 365.231 25.488ZM361.423 30.528C361.423 31.008 361.514 31.4133 361.695 31.744C361.887 32.064 362.133 32.3093 362.431 32.48C362.73 32.64 363.045 32.72 363.375 32.72C363.781 32.72 364.165 32.576 364.527 32.288C364.89 32 365.205 31.5947 365.471 31.072C365.749 30.5493 365.951 29.936 366.079 29.232L366.495 26.912C366.293 26.848 366.079 26.8 365.855 26.768C365.631 26.7253 365.37 26.704 365.071 26.704C364.357 26.704 363.722 26.8747 363.167 27.216C362.623 27.5467 362.197 28 361.887 28.576C361.578 29.152 361.423 29.8027 361.423 30.528ZM370.482 28.016C370.492 27.9627 370.498 27.904 370.498 27.84C370.508 27.7653 370.514 27.6907 370.514 27.616C370.514 27.3173 370.428 27.1093 370.258 26.992C370.087 26.864 369.863 26.8 369.586 26.8L370.082 25.68C370.647 25.68 371.079 25.8187 371.378 26.096C371.687 26.3627 371.842 26.7627 371.842 27.296V27.616C372.151 26.8587 372.546 26.3147 373.026 25.984C373.516 25.6533 374.071 25.488 374.69 25.488C374.935 25.488 375.143 25.5093 375.314 25.552C375.495 25.584 375.644 25.6267 375.762 25.68L375.122 27.088C374.994 27.0347 374.86 26.9973 374.722 26.976C374.583 26.9547 374.423 26.944 374.242 26.944C373.858 26.944 373.474 27.0827 373.09 27.36C372.716 27.6267 372.375 28.0747 372.066 28.704C371.767 29.3333 371.522 30.1973 371.33 31.296L370.866 34H369.426L370.482 28.016ZM379.098 34.192C378.394 34.192 377.77 34.0427 377.226 33.744C376.693 33.4347 376.271 32.9973 375.962 32.432C375.663 31.856 375.514 31.1787 375.514 30.4C375.514 29.5147 375.695 28.6987 376.058 27.952C376.431 27.2053 376.954 26.608 377.626 26.16C378.309 25.712 379.103 25.488 380.01 25.488C380.629 25.488 381.151 25.6053 381.578 25.84C382.015 26.0747 382.351 26.3787 382.586 26.752C382.821 27.1253 382.938 27.5253 382.938 27.952C382.938 28.5387 382.799 29.024 382.522 29.408C382.245 29.792 381.887 30.0907 381.45 30.304C381.013 30.5067 380.538 30.6507 380.026 30.736C379.525 30.8213 379.045 30.864 378.586 30.864C378.298 30.864 378.01 30.8533 377.722 30.832C377.445 30.8 377.199 30.768 376.986 30.736C377.071 31.44 377.322 31.9787 377.738 32.352C378.154 32.7253 378.687 32.912 379.338 32.912C379.871 32.912 380.346 32.8427 380.762 32.704C381.178 32.5653 381.53 32.4267 381.818 32.288L381.946 33.568C381.626 33.7173 381.221 33.8613 380.73 34C380.239 34.128 379.695 34.192 379.098 34.192ZM379.898 26.704C379.397 26.704 378.943 26.832 378.538 27.088C378.133 27.3333 377.797 27.6747 377.53 28.112C377.274 28.5387 377.103 29.0293 377.018 29.584C377.263 29.6267 377.509 29.664 377.754 29.696C378.01 29.7173 378.287 29.728 378.586 29.728C379.482 29.728 380.191 29.6053 380.714 29.36C381.237 29.104 381.498 28.672 381.498 28.064C381.498 27.6907 381.349 27.3707 381.05 27.104C380.762 26.8373 380.378 26.704 379.898 26.704ZM387.379 34.192C386.675 34.192 386.051 34.0427 385.507 33.744C384.974 33.4347 384.552 32.9973 384.243 32.432C383.944 31.856 383.795 31.1787 383.795 30.4C383.795 29.5147 383.976 28.6987 384.339 27.952C384.712 27.2053 385.235 26.608 385.907 26.16C386.59 25.712 387.384 25.488 388.291 25.488C388.91 25.488 389.432 25.6053 389.859 25.84C390.296 26.0747 390.632 26.3787 390.867 26.752C391.102 27.1253 391.219 27.5253 391.219 27.952C391.219 28.5387 391.08 29.024 390.803 29.408C390.526 29.792 390.168 30.0907 389.731 30.304C389.294 30.5067 388.819 30.6507 388.307 30.736C387.806 30.8213 387.326 30.864 386.867 30.864C386.579 30.864 386.291 30.8533 386.003 30.832C385.726 30.8 385.48 30.768 385.267 30.736C385.352 31.44 385.603 31.9787 386.019 32.352C386.435 32.7253 386.968 32.912 387.619 32.912C388.152 32.912 388.627 32.8427 389.043 32.704C389.459 32.5653 389.811 32.4267 390.099 32.288L390.227 33.568C389.907 33.7173 389.502 33.8613 389.011 34C388.52 34.128 387.976 34.192 387.379 34.192ZM388.179 26.704C387.678 26.704 387.224 26.832 386.819 27.088C386.414 27.3333 386.078 27.6747 385.811 28.112C385.555 28.5387 385.384 29.0293 385.299 29.584C385.544 29.6267 385.79 29.664 386.035 29.696C386.291 29.7173 386.568 29.728 386.867 29.728C387.763 29.728 388.472 29.6053 388.995 29.36C389.518 29.104 389.779 28.672 389.779 28.064C389.779 27.6907 389.63 27.3707 389.331 27.104C389.043 26.8373 388.659 26.704 388.179 26.704ZM397.9 27.488C397.591 27.2747 397.244 27.088 396.86 26.928C396.487 26.768 396.06 26.688 395.58 26.688C395.079 26.688 394.69 26.7733 394.412 26.944C394.135 27.1147 393.996 27.3387 393.996 27.616C393.996 27.776 394.039 27.9307 394.124 28.08C394.22 28.2187 394.386 28.368 394.62 28.528C394.866 28.688 395.207 28.88 395.644 29.104C396.37 29.4667 396.908 29.8453 397.26 30.24C397.612 30.624 397.788 31.0987 397.788 31.664C397.788 32.2293 397.639 32.6987 397.34 33.072C397.042 33.4453 396.642 33.728 396.14 33.92C395.639 34.1013 395.074 34.192 394.444 34.192C393.794 34.192 393.218 34.112 392.716 33.952C392.226 33.7813 391.799 33.5627 391.436 33.296L392.252 32.112C392.54 32.3467 392.882 32.544 393.276 32.704C393.671 32.864 394.103 32.944 394.572 32.944C395.106 32.944 395.527 32.8427 395.836 32.64C396.146 32.4373 396.3 32.1867 396.3 31.888C396.3 31.6107 396.183 31.3547 395.948 31.12C395.724 30.8853 395.282 30.6027 394.62 30.272C394.087 30.0053 393.671 29.7493 393.372 29.504C393.074 29.248 392.866 28.976 392.748 28.688C392.631 28.4 392.572 28.0693 392.572 27.696C392.572 27.2693 392.7 26.8907 392.956 26.56C393.212 26.2293 393.57 25.968 394.028 25.776C394.487 25.584 395.015 25.488 395.612 25.488C396.21 25.488 396.743 25.568 397.212 25.728C397.692 25.8773 398.114 26.0587 398.476 26.272L397.9 27.488Z" fill="#2B2F34"/>
</svg>
