<svg width="425" height="20" viewBox="0 0 425 20" fill="none" xmlns="http://www.w3.org/2000/svg">
<g clip-path="url(#clip0_8431_214)">
<path d="M9.9974 18.3332C5.3949 18.3332 1.66406 14.6023 1.66406 9.99984C1.66406 5.39734 5.3949 1.6665 9.9974 1.6665C14.5999 1.6665 18.3307 5.39734 18.3307 9.99984C18.3307 14.6023 14.5999 18.3332 9.9974 18.3332ZM9.9974 16.6665C11.7655 16.6665 13.4612 15.9641 14.7114 14.7139C15.9617 13.4636 16.6641 11.7679 16.6641 9.99984C16.6641 8.23173 15.9617 6.53603 14.7114 5.28579C13.4612 4.03555 11.7655 3.33317 9.9974 3.33317C8.22929 3.33317 6.53359 4.03555 5.28335 5.28579C4.03311 6.53603 3.33073 8.23173 3.33073 9.99984C3.33073 11.7679 4.03311 13.4636 5.28335 14.7139C6.53359 15.9641 8.22929 16.6665 9.9974 16.6665ZM10.8307 9.99984H14.1641V11.6665H9.16406V5.83317H10.8307V9.99984Z" fill="black"/>
</g>
<path d="M29.696 7.36C29.696 6.816 29.6213 6.416 29.472 6.16C29.3227 5.89333 29.024 5.76 28.576 5.76H28.256V5.44H32.448C34.5173 5.44 36.08 5.89867 37.136 6.816C38.2027 7.73333 38.736 9.01333 38.736 10.656C38.736 11.712 38.512 12.6453 38.064 13.456C37.616 14.256 36.9493 14.88 36.064 15.328C35.1893 15.776 34.1227 16 32.864 16H29.696V7.36ZM32.816 15.44C33.6053 15.44 34.3147 15.248 34.944 14.864C35.584 14.4693 36.0853 13.92 36.448 13.216C36.8107 12.5013 36.992 11.6693 36.992 10.72C36.992 9.792 36.8107 8.97067 36.448 8.256C36.096 7.54133 35.6 6.98667 34.96 6.592C34.32 6.19733 33.5947 6 32.784 6C32.272 6 31.7387 6.08533 31.184 6.256V15.232C31.7813 15.3707 32.3253 15.44 32.816 15.44ZM43.6455 16.16C42.8455 16.16 42.1895 15.9467 41.6775 15.52C41.1762 15.0933 40.9255 14.3467 40.9255 13.28V10.4C40.9255 9.856 40.8508 9.456 40.7015 9.2C40.5522 8.93333 40.2535 8.8 39.8055 8.8H39.6455V8.48H40.9255C41.3202 8.48 41.6135 8.53333 41.8055 8.64C42.0082 8.736 42.1522 8.91733 42.2375 9.184C42.3228 9.45067 42.3655 9.856 42.3655 10.4V13.28C42.3655 14.0267 42.5308 14.576 42.8615 14.928C43.2028 15.2693 43.6242 15.44 44.1255 15.44C44.6908 15.44 45.2242 15.1573 45.7255 14.592V8.48H47.1655V16H46.3655L45.8055 15.36H45.7255C45.5015 15.584 45.2082 15.776 44.8455 15.936C44.4935 16.0853 44.0935 16.16 43.6455 16.16ZM49.92 10.4C49.92 9.856 49.8453 9.456 49.696 9.2C49.5467 8.93333 49.248 8.8 48.8 8.8H48.64V8.48H49.92C50.3253 8.48 50.6293 8.53867 50.832 8.656C51.0453 8.76267 51.1947 8.944 51.28 9.2H51.36C51.552 8.95467 51.808 8.74667 52.128 8.576C52.4587 8.40533 52.8427 8.32 53.28 8.32C53.7067 8.32 54.0267 8.4 54.24 8.56C54.4213 8.69867 54.608 8.93867 54.8 9.28L54.16 9.76C54.0427 9.6 53.872 9.48267 53.648 9.408C53.424 9.32267 53.168 9.28 52.88 9.28C52.56 9.28 52.2667 9.35467 52 9.504C51.7333 9.64267 51.52 9.83467 51.36 10.08V16H49.92V10.4ZM58.2634 16.16C57.922 16.16 57.5754 16.0907 57.2234 15.952C56.8714 15.8027 56.5674 15.5627 56.3114 15.232C56.066 14.9013 55.9434 14.464 55.9434 13.92C55.9434 13.1093 56.3167 12.5333 57.0634 12.192C57.8207 11.8507 58.8074 11.68 60.0234 11.68H60.5034C60.5034 10.6347 60.3594 9.92 60.0714 9.536C59.7834 9.152 59.3674 8.96 58.8234 8.96C58.3434 8.96 57.9594 9.06133 57.6714 9.264C57.3834 9.46667 57.1807 9.81867 57.0634 10.32H56.3434C56.3434 9.95733 56.3647 9.67467 56.4074 9.472C56.45 9.25867 56.562 9.06133 56.7434 8.88C56.9354 8.688 57.25 8.54933 57.6874 8.464C58.1354 8.368 58.6207 8.32 59.1434 8.32C60.0074 8.32 60.69 8.55467 61.1914 9.024C61.6927 9.48267 61.9434 10.368 61.9434 11.68V16H61.1434L60.5834 15.28H60.5034C60.3114 15.5253 60.0287 15.7333 59.6554 15.904C59.282 16.0747 58.818 16.16 58.2634 16.16ZM58.9834 15.44C59.3354 15.44 59.6287 15.3547 59.8634 15.184C60.098 15.0133 60.3114 14.7787 60.5034 14.48V12.32H60.0234C59.234 12.32 58.61 12.4693 58.1514 12.768C57.6927 13.056 57.4634 13.44 57.4634 13.92C57.4634 14.4107 57.6074 14.7893 57.8954 15.056C58.194 15.312 58.5567 15.44 58.9834 15.44ZM66.7185 16.16C66.1212 16.16 65.6518 15.9893 65.3105 15.648C64.9692 15.3067 64.7985 14.784 64.7985 14.08V9.12H63.6785V8.48H64.7985V7.04L65.5985 6.08H66.2385V8.48H68.1585V9.12H66.2385V14.08C66.2385 15.04 66.6118 15.52 67.3585 15.52C67.6145 15.52 67.8278 15.4933 67.9985 15.44C68.1798 15.3867 68.3665 15.3067 68.5585 15.2L68.7185 15.52C68.4732 15.7013 68.2012 15.856 67.9025 15.984C67.6038 16.1013 67.2092 16.16 66.7185 16.16ZM71.0687 7.52C70.8234 7.52 70.6101 7.41867 70.4287 7.216C70.2581 7.01333 70.1727 6.77333 70.1727 6.496C70.1727 6.272 70.2367 6.096 70.3647 5.968C70.5034 5.84 70.6847 5.776 70.9087 5.776C71.1541 5.776 71.3621 5.87733 71.5327 6.08C71.7141 6.28267 71.8047 6.52267 71.8047 6.8C71.8047 7.024 71.7354 7.2 71.5967 7.328C71.4687 7.456 71.2927 7.52 71.0687 7.52ZM70.4607 10.4C70.4607 9.856 70.3861 9.456 70.2367 9.2C70.0874 8.93333 69.7887 8.8 69.3407 8.8H69.0207V8.48H70.4607C70.8554 8.48 71.1487 8.53333 71.3407 8.64C71.5434 8.736 71.6874 8.91733 71.7727 9.184C71.8581 9.45067 71.9007 9.856 71.9007 10.4V16H70.4607V10.4ZM77.5662 16.16C76.8409 16.16 76.2116 15.9893 75.6782 15.648C75.1449 15.296 74.7396 14.8213 74.4622 14.224C74.1849 13.6267 74.0462 12.9653 74.0462 12.24C74.0462 11.5147 74.1849 10.8533 74.4622 10.256C74.7396 9.65867 75.1449 9.18933 75.6782 8.848C76.2116 8.496 76.8409 8.32 77.5662 8.32C78.2916 8.32 78.9209 8.496 79.4542 8.848C79.9876 9.18933 80.3929 9.65867 80.6702 10.256C80.9476 10.8533 81.0862 11.5147 81.0862 12.24C81.0862 12.9653 80.9476 13.6267 80.6702 14.224C80.3929 14.8213 79.9876 15.296 79.4542 15.648C78.9209 15.9893 78.2916 16.16 77.5662 16.16ZM77.5662 15.52C77.9609 15.52 78.3076 15.376 78.6062 15.088C78.9156 14.8 79.1502 14.4053 79.3102 13.904C79.4809 13.4027 79.5662 12.848 79.5662 12.24C79.5662 11.632 79.4809 11.0773 79.3102 10.576C79.1502 10.0747 78.9156 9.68 78.6062 9.392C78.3076 9.104 77.9609 8.96 77.5662 8.96C77.1716 8.96 76.8196 9.104 76.5102 9.392C76.2116 9.68 75.9769 10.0747 75.8062 10.576C75.6462 11.0773 75.5662 11.632 75.5662 12.24C75.5662 12.848 75.6462 13.4027 75.8062 13.904C75.9769 14.4053 76.2116 14.8 76.5102 15.088C76.8196 15.376 77.1716 15.52 77.5662 15.52ZM83.5226 10.4C83.5226 9.856 83.448 9.456 83.2986 9.2C83.1493 8.93333 82.8506 8.8 82.4026 8.8H82.0826V8.48H83.5226C83.9173 8.48 84.216 8.53333 84.4186 8.64C84.632 8.74667 84.7866 8.90667 84.8826 9.12H84.9626C85.1866 8.896 85.4746 8.70933 85.8266 8.56C86.1893 8.4 86.5946 8.32 87.0426 8.32C87.8426 8.32 88.4933 8.53333 88.9946 8.96C89.5066 9.38667 89.7626 10.1333 89.7626 11.2V16H88.3226V11.2C88.3226 10.4533 88.152 9.90933 87.8106 9.568C87.48 9.216 87.064 9.04 86.5626 9.04C85.9973 9.04 85.464 9.32267 84.9626 9.888V16H83.5226V10.4Z" fill="black"/>
<path d="M234.064 13.72L235.488 5.672L233.104 7.336L232.448 6.184L236.192 3.8H237.248L235.504 13.72H237.408L237.184 15H231.552L231.776 13.72H234.064ZM248.218 6.312C248.218 6.86667 248.084 7.368 247.818 7.816C247.562 8.25333 247.22 8.65333 246.794 9.016C246.367 9.37867 245.908 9.73067 245.418 10.072C244.938 10.4027 244.468 10.7493 244.01 11.112C243.562 11.464 243.172 11.848 242.842 12.264C242.511 12.68 242.292 13.1547 242.186 13.688H247.274L247.05 15H240.618C240.607 14.9147 240.596 14.8187 240.586 14.712C240.575 14.6053 240.57 14.504 240.57 14.408C240.57 13.6613 240.714 13.0053 241.002 12.44C241.3 11.864 241.679 11.352 242.138 10.904C242.607 10.456 243.098 10.0453 243.61 9.672C244.132 9.29867 244.623 8.94667 245.082 8.616C245.551 8.27467 245.93 7.928 246.218 7.576C246.516 7.224 246.666 6.84 246.666 6.424C246.666 5.95467 246.506 5.58133 246.186 5.304C245.866 5.02667 245.471 4.888 245.002 4.888C244.543 4.888 244.127 4.97333 243.754 5.144C243.391 5.31467 243.028 5.55467 242.666 5.864L241.994 4.776C242.431 4.424 242.906 4.14133 243.418 3.928C243.93 3.71467 244.516 3.608 245.178 3.608C245.786 3.608 246.314 3.72533 246.762 3.96C247.22 4.19467 247.578 4.51467 247.834 4.92C248.09 5.32533 248.218 5.78933 248.218 6.312ZM265.248 5.64L261.104 12.472H259.616L257.744 5.576L256.096 15H254.656L256.624 3.8H258.688L260.576 10.936L264.8 3.8H267.088L265.12 15H263.6L265.248 5.64ZM271.729 15.192C270.94 15.192 270.257 15.032 269.681 14.712C269.105 14.392 268.657 13.9493 268.337 13.384C268.028 12.808 267.873 12.1573 267.873 11.432C267.873 10.504 268.06 9.66667 268.433 8.92C268.817 8.17333 269.351 7.58133 270.033 7.144C270.716 6.70667 271.521 6.488 272.449 6.488C273.239 6.488 273.921 6.648 274.497 6.968C275.073 7.288 275.516 7.73067 275.825 8.296C276.145 8.86133 276.305 9.512 276.305 10.248C276.305 11.1653 276.119 12.0027 275.745 12.76C275.372 13.5067 274.839 14.0987 274.145 14.536C273.463 14.9733 272.657 15.192 271.729 15.192ZM271.777 13.912C272.417 13.912 272.961 13.7573 273.409 13.448C273.868 13.128 274.22 12.7013 274.465 12.168C274.711 11.6347 274.833 11.0373 274.833 10.376C274.833 9.88533 274.737 9.448 274.545 9.064C274.353 8.66933 274.076 8.35467 273.713 8.12C273.351 7.88533 272.913 7.768 272.401 7.768C271.772 7.768 271.228 7.928 270.769 8.248C270.311 8.55733 269.959 8.97867 269.713 9.512C269.468 10.0453 269.345 10.6427 269.345 11.304C269.345 11.784 269.441 12.2213 269.633 12.616C269.825 13.0107 270.103 13.3253 270.465 13.56C270.828 13.7947 271.265 13.912 271.777 13.912ZM282.715 7.752C282.341 7.752 281.936 7.89067 281.499 8.168C281.061 8.44533 280.656 8.87733 280.283 9.464C279.92 10.04 279.659 10.7813 279.499 11.688L278.923 15H277.483L278.939 6.68H280.331L279.979 8.6C280.309 7.96 280.752 7.448 281.307 7.064C281.872 6.68 282.464 6.488 283.083 6.488C283.808 6.488 284.389 6.712 284.827 7.16C285.264 7.59733 285.483 8.136 285.483 8.776C285.483 9.04267 285.451 9.37867 285.387 9.784L284.475 15H283.035L283.915 10.024C283.968 9.768 284 9.58133 284.011 9.464C284.021 9.336 284.027 9.21867 284.027 9.112C284.027 8.696 283.904 8.36533 283.659 8.12C283.424 7.87467 283.109 7.752 282.715 7.752ZM287.193 6.984H288.664L289.433 4.36H290.536L290.073 6.984H292.377L292.169 8.232H289.849L289.177 12.12C289.155 12.2373 289.139 12.3493 289.129 12.456C289.118 12.552 289.113 12.6427 289.113 12.728C289.113 13.1013 289.225 13.3947 289.449 13.608C289.673 13.8107 289.966 13.912 290.329 13.912C290.638 13.912 290.899 13.8693 291.113 13.784C291.326 13.688 291.518 13.592 291.689 13.496L291.865 14.744C291.662 14.8613 291.406 14.9627 291.097 15.048C290.798 15.144 290.462 15.192 290.089 15.192C289.694 15.192 289.31 15.112 288.937 14.952C288.574 14.792 288.275 14.5413 288.041 14.2C287.806 13.848 287.689 13.3947 287.689 12.84C287.689 12.6053 287.71 12.344 287.753 12.056L288.409 8.232H286.985L287.193 6.984ZM299.699 9.112C299.699 8.70667 299.576 8.38133 299.331 8.136C299.096 7.88 298.787 7.752 298.403 7.752C298.029 7.752 297.619 7.88533 297.171 8.152C296.733 8.41867 296.333 8.83467 295.971 9.4C295.608 9.96533 295.347 10.696 295.187 11.592L294.595 15H293.155L295.235 3.16H296.674L295.747 8.424C296.077 7.83733 296.509 7.368 297.043 7.016C297.587 6.664 298.157 6.488 298.755 6.488C299.491 6.488 300.072 6.712 300.499 7.16C300.936 7.59733 301.155 8.136 301.155 8.776C301.155 9.04267 301.123 9.37867 301.059 9.784L300.147 15H298.707L299.587 10.024C299.64 9.768 299.672 9.58133 299.683 9.464C299.693 9.336 299.699 9.21867 299.699 9.112ZM308.4 8.488C308.091 8.27467 307.744 8.088 307.36 7.928C306.987 7.768 306.56 7.688 306.08 7.688C305.579 7.688 305.19 7.77333 304.912 7.944C304.635 8.11467 304.496 8.33867 304.496 8.616C304.496 8.776 304.539 8.93067 304.624 9.08C304.72 9.21867 304.886 9.368 305.12 9.528C305.366 9.688 305.707 9.88 306.144 10.104C306.87 10.4667 307.408 10.8453 307.76 11.24C308.112 11.624 308.288 12.0987 308.288 12.664C308.288 13.2293 308.139 13.6987 307.84 14.072C307.542 14.4453 307.142 14.728 306.64 14.92C306.139 15.1013 305.574 15.192 304.944 15.192C304.294 15.192 303.718 15.112 303.216 14.952C302.726 14.7813 302.299 14.5627 301.936 14.296L302.752 13.112C303.04 13.3467 303.382 13.544 303.776 13.704C304.171 13.864 304.603 13.944 305.072 13.944C305.606 13.944 306.027 13.8427 306.336 13.64C306.646 13.4373 306.8 13.1867 306.8 12.888C306.8 12.6107 306.683 12.3547 306.448 12.12C306.224 11.8853 305.782 11.6027 305.12 11.272C304.587 11.0053 304.171 10.7493 303.872 10.504C303.574 10.248 303.366 9.976 303.248 9.688C303.131 9.4 303.072 9.06933 303.072 8.696C303.072 8.26933 303.2 7.89067 303.456 7.56C303.712 7.22933 304.07 6.968 304.528 6.776C304.987 6.584 305.515 6.488 306.112 6.488C306.71 6.488 307.243 6.568 307.712 6.728C308.192 6.87733 308.614 7.05867 308.976 7.272L308.4 8.488Z" fill="#2B2F34"/>
<defs>
<clipPath id="clip0_8431_214">
<rect width="20" height="20" fill="white"/>
</clipPath>
</defs>
</svg>
