<svg width="425" height="20" viewBox="0 0 425 20" fill="none" xmlns="http://www.w3.org/2000/svg">
<g clip-path="url(#clip0_8431_222)">
<path d="M16.6708 1.66675C17.5892 1.66675 18.3333 2.41508 18.3333 3.32508V16.6751C18.3333 17.5909 17.5892 18.3334 16.6708 18.3334H3.33332V15.0001H1.66666V13.3334H3.33332V10.8334H1.66666V9.16675H3.33332V6.66675H1.66666V5.00008H3.33332V1.66675H16.6708ZM6.66666 3.33341H4.99999V16.6667H6.66666V3.33341ZM16.6667 3.33341H8.33332V16.6667H16.6667V3.33341Z" fill="black"/>
</g>
<path d="M29.696 7.36C29.696 6.816 29.6213 6.416 29.472 6.16C29.3227 5.89333 29.024 5.76 28.576 5.76H28.256V5.44H32.448C34.5173 5.44 36.08 5.89867 37.136 6.816C38.2027 7.73333 38.736 9.01333 38.736 10.656C38.736 11.712 38.512 12.6453 38.064 13.456C37.616 14.256 36.9493 14.88 36.064 15.328C35.1893 15.776 34.1227 16 32.864 16H29.696V7.36ZM32.816 15.44C33.6053 15.44 34.3147 15.248 34.944 14.864C35.584 14.4693 36.0853 13.92 36.448 13.216C36.8107 12.5013 36.992 11.6693 36.992 10.72C36.992 9.792 36.8107 8.97067 36.448 8.256C36.096 7.54133 35.6 6.98667 34.96 6.592C34.32 6.19733 33.5947 6 32.784 6C32.272 6 31.7387 6.08533 31.184 6.256V15.232C31.7813 15.3707 32.3253 15.44 32.816 15.44ZM42.7015 16.16C42.3602 16.16 42.0135 16.0907 41.6615 15.952C41.3095 15.8027 41.0055 15.5627 40.7495 15.232C40.5042 14.9013 40.3815 14.464 40.3815 13.92C40.3815 13.1093 40.7548 12.5333 41.5015 12.192C42.2588 11.8507 43.2455 11.68 44.4615 11.68H44.9415C44.9415 10.6347 44.7975 9.92 44.5095 9.536C44.2215 9.152 43.8055 8.96 43.2615 8.96C42.7815 8.96 42.3975 9.06133 42.1095 9.264C41.8215 9.46667 41.6188 9.81867 41.5015 10.32H40.7815C40.7815 9.95733 40.8028 9.67467 40.8455 9.472C40.8882 9.25867 41.0002 9.06133 41.1815 8.88C41.3735 8.688 41.6882 8.54933 42.1255 8.464C42.5735 8.368 43.0588 8.32 43.5815 8.32C44.4455 8.32 45.1282 8.55467 45.6295 9.024C46.1308 9.48267 46.3815 10.368 46.3815 11.68V16H45.5815L45.0215 15.28H44.9415C44.7495 15.5253 44.4668 15.7333 44.0935 15.904C43.7202 16.0747 43.2562 16.16 42.7015 16.16ZM43.4215 15.44C43.7735 15.44 44.0668 15.3547 44.3015 15.184C44.5362 15.0133 44.7495 14.7787 44.9415 14.48V12.32H44.4615C43.6722 12.32 43.0482 12.4693 42.5895 12.768C42.1308 13.056 41.9015 13.44 41.9015 13.92C41.9015 14.4107 42.0455 14.7893 42.3335 15.056C42.6322 15.312 42.9948 15.44 43.4215 15.44ZM49.7806 7.52C49.5353 7.52 49.322 7.41867 49.1406 7.216C48.97 7.01333 48.8846 6.77333 48.8846 6.496C48.8846 6.272 48.9486 6.096 49.0766 5.968C49.2153 5.84 49.3966 5.776 49.6206 5.776C49.866 5.776 50.074 5.87733 50.2446 6.08C50.426 6.28267 50.5166 6.52267 50.5166 6.8C50.5166 7.024 50.4473 7.2 50.3086 7.328C50.1806 7.456 50.0046 7.52 49.7806 7.52ZM49.1726 10.4C49.1726 9.856 49.098 9.456 48.9486 9.2C48.7993 8.93333 48.5006 8.8 48.0526 8.8H47.7326V8.48H49.1726C49.5673 8.48 49.8606 8.53333 50.0526 8.64C50.2553 8.736 50.3993 8.91733 50.4846 9.184C50.57 9.45067 50.6126 9.856 50.6126 10.4V16H49.1726V10.4ZM53.3791 7.36C53.3791 6.816 53.3045 6.416 53.1551 6.16C53.0058 5.89333 52.7071 5.76 52.2591 5.76H51.9391V5.44H53.3791C53.7738 5.44 54.0671 5.49333 54.2591 5.6C54.4618 5.696 54.6058 5.87733 54.6911 6.144C54.7765 6.41067 54.8191 6.816 54.8191 7.36V16H53.3791V7.36ZM58.0381 18.72C58.5608 18.72 58.9875 18.5973 59.3181 18.352C59.6595 18.1173 59.9528 17.68 60.1981 17.04L60.5181 16.16L57.9581 9.92C57.6595 9.152 57.0728 8.72533 56.1981 8.64V8.32H57.5581C58.4861 8.32 59.1261 8.74667 59.4781 9.6L61.3021 14.032L63.3181 8.48H64.1181L60.9981 17.04C60.6888 17.8827 60.3475 18.4533 59.9741 18.752C59.6008 19.0507 59.1155 19.2 58.5181 19.2H58.0381V18.72ZM70.9129 7.36C70.9129 6.816 70.8382 6.416 70.6889 6.16C70.5395 5.89333 70.2409 5.76 69.7929 5.76H69.4729V5.44H76.2889C77.1955 5.44 77.6489 5.86667 77.6489 6.72V7.92H77.3289C77.3289 6.69333 76.6622 6.08 75.3289 6.08H72.3529V10.24H76.6729V10.88H72.3529V15.36H75.1529C75.8889 15.36 76.4649 15.2267 76.8809 14.96C77.2969 14.6933 77.6275 14.24 77.8729 13.6L78.1929 13.68L77.6329 15.2C77.4409 15.7333 77.0409 16 76.4329 16H70.9129V7.36ZM79.3104 9.12V8.48H80.4304V8C80.4304 6.18667 81.3637 5.28 83.2304 5.28C83.9024 5.28 84.3557 5.36 84.5904 5.52C84.7717 5.65867 84.9584 5.89867 85.1504 6.24L84.6704 6.64C84.3504 6.16 83.8437 5.92 83.1504 5.92C82.297 5.92 81.8704 6.61333 81.8704 8V8.48H84.1104V9.12H81.8704V16H80.4304V9.12H79.3104ZM85.021 9.12V8.48H86.141V8C86.141 6.18667 87.0743 5.28 88.941 5.28C89.613 5.28 90.0663 5.36 90.301 5.52C90.4823 5.65867 90.669 5.89867 90.861 6.24L90.381 6.64C90.061 6.16 89.5543 5.92 88.861 5.92C88.0077 5.92 87.581 6.61333 87.581 8V8.48H89.821V9.12H87.581V16H86.141V9.12H85.021ZM94.4481 16.16C93.7228 16.16 93.0935 15.9893 92.5601 15.648C92.0268 15.296 91.6215 14.8213 91.3441 14.224C91.0668 13.6267 90.9281 12.9653 90.9281 12.24C90.9281 11.5147 91.0668 10.8533 91.3441 10.256C91.6215 9.65867 92.0268 9.18933 92.5601 8.848C93.0935 8.496 93.7228 8.32 94.4481 8.32C95.1735 8.32 95.8028 8.496 96.3361 8.848C96.8695 9.18933 97.2748 9.65867 97.5521 10.256C97.8295 10.8533 97.9681 11.5147 97.9681 12.24C97.9681 12.9653 97.8295 13.6267 97.5521 14.224C97.2748 14.8213 96.8695 15.296 96.3361 15.648C95.8028 15.9893 95.1735 16.16 94.4481 16.16ZM94.4481 15.52C94.8428 15.52 95.1895 15.376 95.4881 15.088C95.7975 14.8 96.0321 14.4053 96.1921 13.904C96.3628 13.4027 96.4481 12.848 96.4481 12.24C96.4481 11.632 96.3628 11.0773 96.1921 10.576C96.0321 10.0747 95.7975 9.68 95.4881 9.392C95.1895 9.104 94.8428 8.96 94.4481 8.96C94.0535 8.96 93.7015 9.104 93.3921 9.392C93.0935 9.68 92.8588 10.0747 92.6881 10.576C92.5281 11.0773 92.4481 11.632 92.4481 12.24C92.4481 12.848 92.5281 13.4027 92.6881 13.904C92.8588 14.4053 93.0935 14.8 93.3921 15.088C93.7015 15.376 94.0535 15.52 94.4481 15.52ZM100.292 10.4C100.292 9.856 100.218 9.456 100.068 9.2C99.9192 8.93333 99.6205 8.8 99.1725 8.8H99.0125V8.48H100.292C100.698 8.48 101.002 8.53867 101.204 8.656C101.418 8.76267 101.567 8.944 101.652 9.2H101.732C101.924 8.95467 102.18 8.74667 102.5 8.576C102.831 8.40533 103.215 8.32 103.652 8.32C104.079 8.32 104.399 8.4 104.612 8.56C104.794 8.69867 104.98 8.93867 105.172 9.28L104.532 9.76C104.415 9.6 104.244 9.48267 104.02 9.408C103.796 9.32267 103.54 9.28 103.252 9.28C102.932 9.28 102.639 9.35467 102.372 9.504C102.106 9.64267 101.892 9.83467 101.732 10.08V16H100.292V10.4ZM109.068 16.16C108.471 16.16 108.001 15.9893 107.66 15.648C107.319 15.3067 107.148 14.784 107.148 14.08V9.12H106.028V8.48H107.148V7.04L107.948 6.08H108.588V8.48H110.508V9.12H108.588V14.08C108.588 15.04 108.961 15.52 109.708 15.52C109.964 15.52 110.177 15.4933 110.348 15.44C110.529 15.3867 110.716 15.3067 110.908 15.2L111.068 15.52C110.823 15.7013 110.551 15.856 110.252 15.984C109.953 16.1013 109.559 16.16 109.068 16.16Z" fill="black"/>
<path d="M231.52 13.048C231.808 13.304 232.149 13.5067 232.544 13.656C232.939 13.8053 233.371 13.88 233.84 13.88C234.608 13.88 235.248 13.672 235.76 13.256C236.272 12.84 236.528 12.2693 236.528 11.544C236.528 10.9253 236.299 10.4187 235.84 10.024C235.392 9.62933 234.736 9.432 233.872 9.432H232.288L233.264 3.8H238.784L238.56 5.096H234.4L233.872 8.136H234.176C235.051 8.136 235.776 8.28533 236.352 8.584C236.928 8.872 237.36 9.26133 237.648 9.752C237.936 10.232 238.08 10.76 238.08 11.336C238.08 12.0933 237.899 12.7653 237.536 13.352C237.173 13.928 236.667 14.3813 236.016 14.712C235.376 15.032 234.624 15.192 233.76 15.192C233.12 15.192 232.528 15.112 231.984 14.952C231.451 14.7813 231.008 14.5573 230.656 14.28L231.52 13.048ZM241.626 10.168L241.866 8.856H247.306L247.066 10.168H241.626ZM251.236 15C251.46 13.656 251.721 12.4987 252.02 11.528C252.329 10.5573 252.692 9.70933 253.108 8.984C253.534 8.25867 254.041 7.592 254.628 6.984C255.214 6.376 255.897 5.752 256.676 5.112H251.348L251.572 3.8H258.66L258.468 4.952C257.753 5.54933 257.129 6.12533 256.596 6.68C256.062 7.224 255.598 7.77867 255.204 8.344C254.82 8.89867 254.484 9.50133 254.196 10.152C253.918 10.8027 253.668 11.5227 253.444 12.312C253.23 13.1013 253.033 13.9973 252.852 15H251.236ZM270.714 9.112C270.714 8.70667 270.591 8.38133 270.346 8.136C270.111 7.88 269.802 7.752 269.418 7.752C269.045 7.752 268.634 7.88533 268.186 8.152C267.749 8.41867 267.349 8.83467 266.986 9.4C266.623 9.96533 266.362 10.696 266.202 11.592L265.61 15H264.17L266.25 3.16H267.69L266.762 8.424C267.093 7.83733 267.525 7.368 268.058 7.016C268.602 6.664 269.173 6.488 269.77 6.488C270.506 6.488 271.087 6.712 271.514 7.16C271.951 7.59733 272.17 8.136 272.17 8.776C272.17 9.04267 272.138 9.37867 272.074 9.784L271.162 15H269.722L270.602 10.024C270.655 9.768 270.687 9.58133 270.698 9.464C270.709 9.336 270.714 9.21867 270.714 9.112ZM277.448 15.192C276.659 15.192 275.976 15.032 275.4 14.712C274.824 14.392 274.376 13.9493 274.056 13.384C273.747 12.808 273.592 12.1573 273.592 11.432C273.592 10.504 273.779 9.66667 274.152 8.92C274.536 8.17333 275.069 7.58133 275.752 7.144C276.435 6.70667 277.24 6.488 278.168 6.488C278.957 6.488 279.64 6.648 280.216 6.968C280.792 7.288 281.235 7.73067 281.544 8.296C281.864 8.86133 282.024 9.512 282.024 10.248C282.024 11.1653 281.837 12.0027 281.464 12.76C281.091 13.5067 280.557 14.0987 279.864 14.536C279.181 14.9733 278.376 15.192 277.448 15.192ZM277.496 13.912C278.136 13.912 278.68 13.7573 279.128 13.448C279.587 13.128 279.939 12.7013 280.184 12.168C280.429 11.6347 280.552 11.0373 280.552 10.376C280.552 9.88533 280.456 9.448 280.264 9.064C280.072 8.66933 279.795 8.35467 279.432 8.12C279.069 7.88533 278.632 7.768 278.12 7.768C277.491 7.768 276.947 7.928 276.488 8.248C276.029 8.55733 275.677 8.97867 275.432 9.512C275.187 10.0453 275.064 10.6427 275.064 11.304C275.064 11.784 275.16 12.2213 275.352 12.616C275.544 13.0107 275.821 13.3253 276.184 13.56C276.547 13.7947 276.984 13.912 277.496 13.912ZM285.713 15.192C285.287 15.192 284.892 15.096 284.529 14.904C284.177 14.712 283.895 14.4453 283.681 14.104C283.468 13.752 283.361 13.336 283.361 12.856C283.361 12.7173 283.367 12.5787 283.377 12.44C283.388 12.2907 283.404 12.136 283.425 11.976L284.337 6.68H285.777L284.849 11.944C284.839 12.0507 284.828 12.1467 284.817 12.232C284.807 12.3067 284.801 12.392 284.801 12.488C284.801 12.968 284.94 13.3253 285.217 13.56C285.495 13.7947 285.82 13.912 286.193 13.912C286.599 13.912 286.993 13.7893 287.377 13.544C287.772 13.288 288.119 12.9253 288.417 12.456C288.716 11.9867 288.924 11.4213 289.041 10.76L289.761 6.68H291.201L290.145 12.744C290.135 12.7973 290.124 12.8613 290.113 12.936C290.113 13 290.113 13.0693 290.113 13.144C290.113 13.4427 290.199 13.656 290.369 13.784C290.54 13.9013 290.764 13.96 291.041 13.96L290.545 15.08C289.969 15.08 289.527 14.9413 289.217 14.664C288.919 14.376 288.769 13.9333 288.769 13.336V13.192C287.991 14.5253 286.972 15.192 285.713 15.192ZM293.763 9.016C293.774 8.96267 293.779 8.904 293.779 8.84C293.79 8.76533 293.795 8.69067 293.795 8.616C293.795 8.31733 293.71 8.10933 293.539 7.992C293.368 7.864 293.144 7.8 292.867 7.8L293.363 6.68C293.928 6.68 294.36 6.81867 294.659 7.096C294.968 7.36267 295.123 7.76267 295.123 8.296V8.616C295.432 7.85867 295.827 7.31467 296.307 6.984C296.798 6.65333 297.352 6.488 297.971 6.488C298.216 6.488 298.424 6.50933 298.595 6.552C298.776 6.584 298.926 6.62667 299.043 6.68L298.403 8.088C298.275 8.03467 298.142 7.99733 298.003 7.976C297.864 7.95467 297.704 7.944 297.523 7.944C297.139 7.944 296.755 8.08267 296.371 8.36C295.998 8.62667 295.656 9.07467 295.347 9.704C295.048 10.3333 294.803 11.1973 294.611 12.296L294.147 15H292.707L293.763 9.016ZM304.775 8.488C304.466 8.27467 304.119 8.088 303.735 7.928C303.362 7.768 302.935 7.688 302.455 7.688C301.954 7.688 301.565 7.77333 301.287 7.944C301.01 8.11467 300.871 8.33867 300.871 8.616C300.871 8.776 300.914 8.93067 300.999 9.08C301.095 9.21867 301.261 9.368 301.495 9.528C301.741 9.688 302.082 9.88 302.519 10.104C303.245 10.4667 303.783 10.8453 304.135 11.24C304.487 11.624 304.663 12.0987 304.663 12.664C304.663 13.2293 304.514 13.6987 304.215 14.072C303.917 14.4453 303.517 14.728 303.015 14.92C302.514 15.1013 301.949 15.192 301.319 15.192C300.669 15.192 300.093 15.112 299.591 14.952C299.101 14.7813 298.674 14.5627 298.311 14.296L299.127 13.112C299.415 13.3467 299.757 13.544 300.151 13.704C300.546 13.864 300.978 13.944 301.447 13.944C301.981 13.944 302.402 13.8427 302.711 13.64C303.021 13.4373 303.175 13.1867 303.175 12.888C303.175 12.6107 303.058 12.3547 302.823 12.12C302.599 11.8853 302.157 11.6027 301.495 11.272C300.962 11.0053 300.546 10.7493 300.247 10.504C299.949 10.248 299.741 9.976 299.623 9.688C299.506 9.4 299.447 9.06933 299.447 8.696C299.447 8.26933 299.575 7.89067 299.831 7.56C300.087 7.22933 300.445 6.968 300.903 6.776C301.362 6.584 301.89 6.488 302.487 6.488C303.085 6.488 303.618 6.568 304.087 6.728C304.567 6.87733 304.989 7.05867 305.351 7.272L304.775 8.488Z" fill="#2B2F34"/>
<defs>
<clipPath id="clip0_8431_222">
<rect width="20" height="20" fill="white"/>
</clipPath>
</defs>
</svg>
